<?xml version="1.0" encoding="UTF-8" standalone="no"?>
<!-- Created with Inkscape (http://www.inkscape.org/) -->

<svg
   width="142.17145mm"
   height="142.17145mm"
   viewBox="0 0 142.17145 142.17145"
   version="1.1"
   id="svg5"
   inkscape:version="1.1.1 (1:1.1+202109281949+c3084ef5ed)"
   sodipodi:docname="logo-white.svg"
   inkscape:export-filename="/home/daniel/termocampos.png"
   inkscape:export-xdpi="96"
   inkscape:export-ydpi="96"
   xmlns:inkscape="http://www.inkscape.org/namespaces/inkscape"
   xmlns:sodipodi="http://sodipodi.sourceforge.net/DTD/sodipodi-0.dtd"
   xmlns="http://www.w3.org/2000/svg"
   xmlns:svg="http://www.w3.org/2000/svg">
  <sodipodi:namedview
     id="namedview7"
     pagecolor="#505050"
     bordercolor="#ffffff"
     borderopacity="1"
     inkscape:pageshadow="0"
     inkscape:pageopacity="0"
     inkscape:pagecheckerboard="1"
     inkscape:document-units="mm"
     showgrid="false"
     inkscape:zoom="1"
     inkscape:cx="394.5"
     inkscape:cy="354.5"
     inkscape:window-width="1920"
     inkscape:window-height="1016"
     inkscape:window-x="0"
     inkscape:window-y="27"
     inkscape:window-maximized="1"
     inkscape:current-layer="layer1"
     objecttolerance="10000"
     gridtolerance="10000"
     showguides="true"
     fit-margin-top="0"
     fit-margin-left="0"
     fit-margin-right="0"
     fit-margin-bottom="0" />
  <defs
     id="defs2" />
  <g
     inkscape:label="Capa 1"
     inkscape:groupmode="layer"
     id="layer1"
     transform="translate(-11.283104,-97.235581)">
    <circle
       style="fill:#1a171b;fill-opacity:0.255668;fill-rule:evenodd;stroke:#f7f7f7;stroke-width:1.05833;stroke-linecap:round;stroke-linejoin:round;stroke-miterlimit:4;stroke-dasharray:none;stroke-opacity:1"
       id="path4125"
       cx="82.368828"
       cy="168.3213"
       r="70.556557" />
    <path
       style="fill:#1a171b;fill-opacity:0.459742;stroke:#f7f7f7;stroke-width:0.538249;stroke-linecap:round;stroke-linejoin:round;stroke-miterlimit:4;stroke-dasharray:none;stroke-opacity:1"
       d="m 57.848606,162.34705 c -1.194036,0 -1.295164,-0.31294 -1.374456,0.29188 -0.07929,0.60481 0.55935,1.12681 0.55935,1.52407 0,0.39727 0.773252,1.4756 0.356898,1.81969 -0.416353,0.34409 -0.128512,1.37431 -0.17716,1.74525 -0.04865,0.37095 1.063627,1.79405 0.36452,1.9996 -0.699106,0.20556 -1.193085,0.0538 -1.371975,0.95363 -0.17889,0.89986 0.650685,1.92928 1.000186,2.08867 0.349502,0.15939 0.684138,1.55751 0.177631,1.89353 -0.506507,0.33601 -1.223141,1.51399 -1.337577,2.16131 -0.114435,0.64733 -1.189821,1.82054 -1.668869,1.8103 -0.479049,-0.0102 -2.143591,-0.10647 -2.387499,0.13744 -0.243909,0.24391 -1.46108,0.7201 -1.607272,1.08655 -0.146193,0.36645 -1.102364,1.75601 -0.978355,1.9954 0.124008,0.23939 -0.06645,0.25695 0.247452,1.06828 0.313902,0.81132 0.605757,1.21757 0.605757,1.21757 0,0 -1.312593,-0.8764 -1.751739,-0.54328 -0.439145,0.33312 -1.42976,1.57385 -0.908872,2.036 0.520889,0.46214 2.148272,2.25143 2.699529,2.18899 0.551258,-0.0624 0.07487,-0.13694 0.07487,-0.13694 0,0 0.670624,1.18519 1.068832,1.45203 0.398208,0.26684 2.18541,1.42308 2.984757,1.57261 0.799347,0.14953 1.19456,0.41457 1.19456,0.41457 0,0 1.530202,2.12545 2.821106,2.07122 1.290905,-0.0542 2.225803,0.8377 3.181518,0.5959 0.955715,-0.24179 1.68152,-0.67228 1.68152,-0.67228 0,0 0.308183,-0.048 0.508546,0.4556 0.200364,0.50366 1.437337,1.88114 1.775399,1.84543 0.338061,-0.0357 1.214676,-0.37187 1.614933,0.19181 0.400257,0.56368 2.044467,0.45958 2.044467,0.45958 0,0 1.669987,0.69687 2.004191,1.12779 0.334205,0.43093 1.385156,1.2285 1.562208,1.26466 0.177052,0.0362 0.503482,1.48668 0.368514,1.96033 -0.134968,0.47366 0.311864,1.2649 1.018847,1.27572 0.706984,0.0108 2.224411,1.00769 2.224411,1.00769 l 1.076939,1.11158 c 0,0 0.172092,0.84467 0.23935,1.35024 0.06726,0.50556 0.865156,1.28302 1.679501,1.3552 0.814346,0.0722 0.271827,0.21813 0.271827,0.21813 0,0 -0.389503,0.64159 -0.215891,1.23998 0.173612,0.59839 0.957371,1.5659 2.036821,1.48362 1.079449,-0.0823 3.431347,0.033 3.431347,0.033 0,0 0.658125,-0.6071 1.286381,-0.81843 0.628255,-0.21133 2.106921,-0.60231 2.106921,-0.60231 0,0 0.934767,0.33258 1.172539,0.84081 0.237772,0.50823 1.38095,0.65228 1.502085,0.42485 0.121137,-0.22743 0.309364,-0.72746 0.883016,-0.72746 0.573653,0 1.276461,0.39178 1.316614,0.82632 0.04015,0.43454 0.496228,0.54987 0.996672,0.60014 0.500443,0.0503 1.044756,-0.3593 1.155686,0.16296 0.110931,0.52226 0.265073,1.53652 0.01404,1.65853 -0.251036,0.12201 -3.182507,3.78051 -3.182507,3.78051 0,0 -0.869538,0.76063 -0.705592,1.23122 0.163946,0.47059 1.780658,0.0965 1.780658,0.0965 l 1.83382,0.1129 c 0,0 0.45731,0.43831 0.573201,1.02624 0.115891,0.58793 0.995663,1.65467 1.295155,1.47888 0.299492,-0.1758 0.965645,-2.77199 0.965645,-2.77199 l 3.320908,-14.28881 c 0,0 0.22846,-0.85645 -0.44363,-1.49011 -0.6721,-0.63366 -0.46951,-0.99934 -0.46951,-0.99934 0,0 -0.083,-1.77424 -1.731899,-2.4187 -1.648926,-0.64447 -0.694809,-0.18015 -0.694809,-0.18015 0,0 0.06122,-3.03888 0.595622,-3.54541 0.534401,-0.50654 2.245756,-0.44275 2.245756,-0.44275 l 1.4696,0.17294 1.04756,0.0441 c 0,0 0.44188,-0.38938 0.19019,-1.0953 -0.2517,-0.70592 -0.64859,-2.30257 -0.64859,-2.30257 0,0 -0.58053,-0.27749 -1.71059,-0.23336 -1.130071,0.0441 -1.416526,-0.44265 -1.416526,-0.44265 l -0.138957,-1.12374 0.01304,-0.7579 c 0,0 -0.150927,-0.41338 1.252663,-0.52451 1.40358,-0.11114 3.83201,0.15999 3.83201,0.15999 l 4.0598,-0.14298 c 0,0 -0.0455,-1.26403 0.15684,-0.65891 0.20234,0.60511 0.84417,1.80773 1.08171,1.45768 0.23755,-0.35005 0.62066,-1.23374 0.62066,-1.23374 0,0 1.55544,-1.03263 1.6214,-1.32442 0.066,-0.2918 1.09157,1.34779 1.09157,1.34779 l 0.76201,0.28232 -0.0565,0.45497 c 0,0 -0.36196,0.0361 -0.24769,0.24769 0.11426,0.21158 0.22894,1.02784 0.22894,1.02784 0,0 -0.13926,1.92468 0.28473,2.03591 0.42399,0.11123 2.10279,0.006 2.10279,0.006 0,0 0.38225,-0.41936 0.28096,-1.20897 -0.10128,-0.78961 -0.79323,-2.78791 -0.79323,-2.78791 l -0.58387,-0.90856 c 0,0 -0.50634,-2.89357 -1.00049,-3.58652 -0.49415,-0.69295 -1.58794,-1.69825 -1.58794,-1.69825 l -0.96711,-0.74581 0.48051,-1.09016 c 0,0 1.47608,0.1719 1.94562,-1.18682 0.46955,-1.35872 -0.53091,-1.55434 -0.53091,-1.55434 0,0 -0.22514,-0.71623 -0.10189,-1.20736 0.12325,-0.49113 -0.98369,-0.59725 -0.98369,-0.59725 l -0.65797,-7.02886 c 0,0 1.11357,-1.66919 1.21457,-2.21536 0.101,-0.54617 0.8991,-1.87392 0.8991,-1.87392 0,0 -0.64486,-1.51017 -0.71093,-1.91522 -0.0661,-0.40505 -2.75572,0.1233 -2.75572,0.1233 l -0.96398,-0.16545 c 0,0 -1.45941,0.10932 -1.92781,0.31282 -0.46841,0.2035 -1.78744,-0.32558 -1.78744,-0.32558 0,0 -0.71675,-0.0921 -1.49389,0.0137 -0.77713,0.10583 -1.57879,0.12192 -1.76027,-0.11527 -0.18149,-0.23719 -3.252851,-4.33921 -3.252851,-4.33921 0,0 -0.667829,-0.21552 -1.454698,-0.0994 -0.786868,0.11612 -0.897926,-0.42557 -0.897926,-0.42557 0,0 -0.401179,-0.3735 -1.359423,-0.36482 -0.958244,0.009 -3.255311,0.42442 -3.531691,0.18732 -0.276381,-0.23709 -2.49126,-0.7345 -3.217407,-0.36322 -0.726149,0.37128 -0.739599,-1.65672 -0.739599,-1.65672 0,0 -0.126281,-0.619 -1.339757,-0.9141 -1.213476,-0.2951 0.002,-2.05536 0.002,-2.05536 0,0 0.606478,-2.25608 -0.147496,-2.98729 -0.753975,-0.73122 -1.251287,-3.18908 -1.251287,-3.18908 0,0 -0.666138,-1.47155 -1.341648,-1.86881 -0.675512,-0.39726 -0.737643,-0.78109 -0.737643,-0.78109 0,0 0.06773,-0.43025 0.669384,-1.17376 0.601654,-0.74351 0.551135,-2.53047 0.551135,-2.53047 0,0 0.171043,-0.9652 0.816459,-1.68694 0.645415,-0.72174 1.615511,-2.44618 1.615511,-2.44618 0,0 0.547905,-0.33693 0.920748,-0.36444 0.372843,-0.0275 1.06566,-1.3951 1.06566,-1.3951 0,0 -0.03927,-0.74603 0.481798,-1.11029 0.521075,-0.36425 0.955863,-0.70892 0.955863,-0.70892 0,0 0.749719,0.3896 0.969572,0.22898 0.219852,-0.16061 0.863939,-0.32307 0.863939,-0.32307 0,0 0.624884,-0.13505 0.689892,-0.31426 0.06501,-0.17921 0.288262,-0.55957 0.52651,-0.63612 0.238247,-0.0766 0.962925,-0.14047 0.962925,-0.45366 0,-0.31319 0.284601,-0.62029 0.03577,-1.02101 -0.24883,-0.40073 -0.119387,-0.44429 -0.400503,-0.75871 -0.281115,-0.31442 -0.07185,-0.75329 -0.48667,-0.82578 -0.414819,-0.0725 -0.316848,-0.12474 -0.771924,-0.34518 -0.455075,-0.22044 -0.408711,-0.35802 -0.882211,-0.53471 -0.473501,-0.1767 -0.93758,-0.33822 -1.266269,-0.11967 -0.328691,0.21856 -0.219127,0.1509 -0.460046,0.74299 -0.24092,0.59209 -0.183988,0.79129 -0.601582,0.79129 -0.417593,0 -0.33241,-0.15168 -0.741632,-0.15168 -0.409222,0 -0.906391,0.40782 -0.866238,0.72317 0.04015,0.31534 0.08889,0.58063 0.05316,0.78374 -0.03573,0.20311 -0.443547,0.61093 -0.443547,0.61093 0,0 -0.310452,0.31802 -0.546925,0.31802 -0.236473,0 -0.07848,-0.0395 -0.541229,-0.0395 -0.462751,0 -0.699028,0.0771 -0.922929,0.0771 -0.223901,0 -0.202408,-0.20775 -0.692269,0 -0.489861,0.20774 -0.865145,0.3234 -1.27096,0.72922 -0.405815,0.40582 0.202227,0.41112 -0.52002,0.68941 -0.722247,0.27828 -0.865102,0.34923 -1.361614,0.42954 -0.496512,0.0803 -0.754498,0.52122 -1.328621,0.33288 -0.574123,-0.18833 -0.496671,-0.20959 -0.799455,-0.28817 -0.302786,-0.0786 -1.074136,-0.19628 -1.254522,-0.26197 -0.180385,-0.0657 -0.924845,-0.0657 -0.924845,-0.0657 0,0 -0.773335,-0.17118 -0.691759,0.21999 0.08158,0.39117 0.0068,1.0779 -0.245443,1.11166 -0.252212,0.0338 -0.728545,0.55754 -1.306394,0.47798 -0.577847,-0.0796 -1.134315,-0.24283 -1.32092,-0.12641 -0.186605,0.11642 -1.575751,-0.19316 -1.693799,0.37351 -0.118048,0.56666 -1.115494,0.4388 -1.115494,0.4388 0,0 -0.594406,0.19031 -0.739794,0.58022 -0.145389,0.38991 -0.936237,0.94967 -0.695995,1.43396 0.240243,0.48429 -0.36825,0.44665 -0.36825,0.44665 0,0 -0.443105,0.39523 -0.486895,1.48039 -0.04379,1.08516 -0.13341,1.81532 -0.13341,1.81532 0,0 -0.274111,1.9202 -1.128483,1.90209 -0.854371,-0.0181 -1.144413,0.52906 -1.319083,0.68071 -0.17467,0.15166 -0.652312,0.69256 -0.652312,0.69256 0,0 -0.268407,0.30024 -0.496621,0.41184 -0.228214,0.11159 -0.37224,0.36478 -0.37224,0.36478 l -0.537911,0.55089 c 0,0 0.06288,-0.0216 -0.347555,0.22872 -0.410433,0.2503 -0.15057,0.11041 -0.627422,0.30772 -0.476853,0.1973 -0.224636,0.23607 -0.777227,0.31336 -0.552591,0.0773 -0.363564,0.24333 -0.929958,0.32062 -0.566393,0.0773 -0.686823,-0.11963 -0.686823,0.11743 0,0.23707 -0.04257,0.39593 0.156206,0.82785 0.19878,0.43192 0.545435,0.51223 0.127135,0.43192 -0.418299,-0.0803 -0.511614,-0.11169 -0.703008,-0.14812 -0.191394,-0.0364 -0.569016,-0.53377 -0.569016,-0.53377 l -0.591366,-0.41845 -0.641191,-0.0402 c 0,0 -0.32521,0.37177 -0.362236,0.55548 -0.03703,0.1837 0.0031,0.25972 -0.03703,0.47851 -0.04015,0.21878 0.03566,0.52715 0.07581,0.68776 0.04015,0.16061 0.0241,0.48008 0.220774,0.66762 0.196677,0.18755 0.35729,0.74578 0.35729,0.74578 l 0.227341,0.5137 0.1697,0.63822 c 0,0 -0.205598,0.34076 -0.587288,0.35187 -0.38169,0.0111 -0.605111,0.80052 -0.836001,0.83632 -0.23089,0.0358 -1.24263,-0.55486 -1.24263,-0.55486 l -1.859729,3.44858 c 0,0 0.925581,0.52251 1.031301,0.83973 0.105721,0.31721 -0.07329,0.24923 0.341611,1.06618 0.414903,0.81696 0.06139,0.65936 0.486617,0.81696 0.425225,0.1576 0.447497,-0.20776 0.606825,0.47841 0.159329,0.68616 0.671428,0.16862 0.671428,0.51592 0,0.34731 0.130444,1.04358 -0.189766,1.12388 -0.320211,0.0803 -0.617987,-0.35724 -0.384386,0.33963 0.233601,0.69688 0.06986,0.3644 0.228439,1.02534 0.158579,0.66094 0.66364,0.23482 0.685319,0.89519 0.02168,0.66038 0.02168,0.41693 0.02168,0.70004 0,0.2831 -0.278092,0.78058 -0.278092,0.78058 z"
       id="path321" />
    <path
       style="fill:none;fill-opacity:1;stroke:#f7f7f7;stroke-width:0.538249;stroke-linecap:round;stroke-linejoin:round;stroke-miterlimit:4;stroke-dasharray:none;stroke-opacity:1"
       d="m 94.140265,183.60491 0.156998,-0.74027 4.17144,-2.92357 c 0,0 0.958621,1.00404 0.734378,1.33856 -0.224244,0.33451 -0.69318,1.29345 -0.69318,1.29345 v 0 l -1.35813,1.64179 c 0,0 0.411938,0.96249 -3.945245,4.69913 -4.357182,3.73663 -5.390785,4.3496 -5.390785,4.3496 0,0 -6.74554,4.45089 -10.943076,0.81066 0,0 -1.929578,-1.09325 -1.978377,-3.8643 -0.0488,-2.77106 0.859013,-6.70717 0.859013,-6.70717 0,0 0.976871,-3.66378 3.148631,-7.42496 2.171759,-3.76118 6.008147,-7.48565 6.008147,-7.48565 0,0 2.874764,-2.72257 4.048708,0.19183 1.173945,2.91441 -0.210393,8.58788 -0.210393,8.58788 0,0 -0.617109,1.69781 -1.440368,2.64395 l -1.553168,-0.23632 c 0,0 0.02929,-3.94009 0.857024,-4.79942 0.82773,-0.85933 0.06706,-3.17227 0.06706,-3.17227 0,0 -0.757085,-2.91551 -4.279872,0.90988 -3.522787,3.82539 -4.38153,7.47186 -4.38153,7.47186 0,0 -1.604089,5.49853 -0.142521,9.18415 1.461568,3.68561 4.234923,4.55024 6.625262,3.57968 2.39034,-0.97056 5.8054,-2.63903 9.117001,-5.66247 3.3116,-3.02344 1.734323,-3.56453 1.734323,-3.56453 0,0 -0.788932,-0.58484 -1.211338,-0.12149 z"
       id="path1331"
       sodipodi:nodetypes="cccscccsccscscscccscscssscc" />
    <path
       style="fill:none;fill-opacity:1;stroke:#f7f7f7;stroke-width:0.538249;stroke-linecap:round;stroke-linejoin:round;stroke-miterlimit:4;stroke-dasharray:none;stroke-opacity:1"
       d="m 80.555361,155.69315 c 2.772463,-0.23698 5.039725,-2.76357 5.039725,-2.76357 l 1.051481,0.1381 c 0,0.19141 -0.922774,2.08969 -3.206173,3.84347 -2.032001,1.56069 -3.342571,1.44162 -3.342571,1.44162 0,0 -2.90686,0.042 -3.396933,0.13367 -0.490072,0.0917 -0.437937,0.41398 -0.437937,0.41398 l -0.592464,3.40674 c -0.459778,2.64378 -1.169552,14.44297 -1.202473,15.31397 -0.02474,0.65458 -0.31055,2.04512 -0.31055,2.04512 0,0 -0.138872,0.84498 -0.262733,1.69858 0.25923,0.35012 0.635712,0.73593 0.232491,0.89688 -0.403221,0.16095 -0.954363,0.95423 -1.33927,1.34978 -0.270905,0.2784 -1.002578,0.21388 -1.002578,0.21388 -0.0057,-8.2e-4 -1.239349,-0.0432 -1.239349,-0.0432 -0.413094,-0.068 0.01033,-1.33096 0.01033,-1.33096 0,0 0.254084,-1.10399 0.578499,-1.544 0.324413,-0.44001 0.372201,-1.42948 0.372201,-1.42948 0,0 0.327427,-18.23365 0.396837,-18.95767 0.06941,-0.72403 -0.319977,-0.78297 -0.319977,-0.78297 0,0 -0.431838,0.22783 -1.147184,0.40442 l -2.720469,0.67156 -0.743948,0.70721 c -0.397741,0.37809 -2.571556,3.64955 -2.987902,4.04573 -0.416346,0.39619 -1.106338,0.0967 -1.106338,0.0967 l -1.722352,-1.75929 c 0,0 -0.131019,-0.46319 0.306934,-0.9026 0,0 2.724084,-3.10458 3.794187,-3.32347 1.070103,-0.21888 9.888442,-2.95126 11.702216,-3.14218 1.044882,-0.10999 2.029558,-0.44732 2.029558,-0.44732 0,0 0.866989,-0.29752 1.566746,-0.39472 z"
       id="path4342"
       sodipodi:nodetypes="cccscscssccsscscscscscsscccsscc" />
    <g
       id="g60115"
       style="fill:#f7f7f7;fill-opacity:1"
       transform="matrix(0.40686431,0,0,0.40686431,59.842922,98.915787)">
      <path
         style="fill:#f7f7f7;fill-opacity:1;stroke:#000000;stroke-width:0.264583;stroke-linecap:round;stroke-linejoin:round;stroke-miterlimit:4;stroke-dasharray:none;stroke-opacity:1"
         d="m -83.531931,198.03161 c 0,0 15.14534,0.0222 17.24837,1.37449 2.10303,1.35228 5.180282,0.69795 5.788149,-1.14351 0.607864,-1.84146 0.319217,-6.47779 -2.27257,-8.14504 -2.591784,-1.66724 -9.348218,-1.7244 -9.348218,-1.7244 0,0 -10.889602,0.13904 -13.630683,-1.03526 -2.74108,-1.1743 -2.656496,-2.95287 -2.656496,-2.95287 0,0 0.459788,-4.0668 -2.607802,-6.32184 -3.067587,-2.25504 -3.826896,-2.87564 -3.826896,-2.87564 0,0 -1.09443,-0.57372 -2.586397,0.16198 -1.491964,0.73571 -2.818446,1.42116 -2.734836,2.9772 0.0836,1.55604 -0.11444,2.72249 0.977524,3.38679 1.091959,0.66431 1.45937,2.61478 1.45937,2.61478 0,0 2.442141,12.78017 3.616849,15.53988 1.174705,2.75971 1.373293,3.73383 1.373293,3.73383 0,0 0.901721,2.52298 3.60858,4.16147 2.706863,1.63849 4.889807,3.14935 7.595839,-0.95368 2.706031,-4.10304 1.796841,-4.96662 1.102373,-5.6328 -0.694471,-0.66618 -3.085269,-2.49481 -3.106449,-3.16538 z"
         id="path9032" />
      <path
         style="fill:#f7f7f7;fill-opacity:1;stroke:#000000;stroke-width:0.264583px;stroke-linecap:round;stroke-linejoin:round;stroke-opacity:1"
         d="m -75.053681,162.28704 c 0,0 -2.782675,-2.07813 -4.677146,-1.94652 -0.862145,0.0599 -5.921991,1.16646 -5.921991,1.16646 0,0 -1.714801,0.41331 -2.216512,2.54779 -0.618238,2.63024 -0.970811,5.42288 -0.214612,6.7881 0,0 4.543649,6.40096 6.773696,7.17141 l 4.0987,1.41605 c 0.494687,0.17091 11.093569,2.68083 14.091293,1.1244 2.997724,-1.55642 2.443088,-4.20833 1.956562,-5.77609 -0.486527,-1.56777 -2.324441,-11.45213 -4.488655,-13.42984 -2.45157,-2.2403 -8.180939,-3.09858 -8.180939,-3.09858 0,0 -0.01731,1.71164 -1.220396,4.03682 z"
         id="path14288"
         sodipodi:nodetypes="cscssssssscc" />
      <path
         style="fill:#f7f7f7;fill-opacity:1;stroke:#000000;stroke-width:0.264583px;stroke-linecap:round;stroke-linejoin:round;stroke-opacity:1"
         d="m -84.356606,144.92806 c 0,0 0.340167,0.14863 0.0013,-0.90582 -0.338965,-1.05444 -1.072433,-7.50141 1.70116,-7.34712 0,0 0.643138,-0.73855 -0.364579,-2.77415 -1.007717,-2.03561 -1.128412,-4.9859 -1.082408,-5.82209 0.04601,-0.8362 0.649177,-1.34039 0.649177,-1.34039 l 0.746728,-0.77512 c 0.286362,-0.29725 1.850305,-2.31678 3.064882,-2.07013 1.214577,0.24665 1.567648,0.1727 1.713613,-1.04971 0.294982,-2.47038 2.039354,-3.68284 2.039354,-3.68284 0,0 0.688746,-0.78089 2.661557,-1.63969 0.250218,-0.10892 -0.485471,-1.84973 -0.485471,-1.84973 0,0 -1.159279,-3.23646 0.656297,-5.18384 1.815577,-1.94738 5.57657,-2.30508 7.902181,-1.59616 2.325611,0.70892 3.551296,0.68493 3.13957,-0.43923 -0.411727,-1.12417 -0.06418,-3.1261 1.261569,-3.52225 0,0 0.647068,-0.019 -0.555843,-1.6128 -1.202911,-1.59381 -3.636034,-5.450426 -3.925447,-6.721997 -0.289413,-1.271571 0.978524,-6.930687 1.634153,-8.540678 0.655629,-1.609991 2.185916,-5.396273 5.775473,-6.389275 0.526343,0.0011 0.312613,-1.974243 0.312613,-1.974243 0,0 -0.963681,-4.884574 1.977714,-5.706572 0,0 1.406431,-0.181322 -0.194274,-2.771014 -1.600705,-2.589693 -2.338444,-4.530201 -1.932182,-8.453052 0.406261,-3.922851 0.910831,-6.638984 3.274703,-8.441664 2.363872,-1.80268 7.072075,-1.477692 8.471474,1.630274 1.3994,3.107966 -0.834103,5.989577 -1.878618,6.754999 -0.775041,0.567952 -0.63699,1.960848 -0.63699,1.960848 0,0 -0.31886,2.757933 1.598476,3.241451 0.84544,0.213205 1.725267,-0.540555 1.725267,-0.540555 0,0 0.819589,-1.035316 1.576885,-1.382163 1.407156,-0.644488 2.127687,-0.667531 2.756048,-0.630965 0.628361,0.03657 0.41573,-0.978084 0.41573,-0.978084 0,0 0.459511,-4.381228 4.17306,-7.605964 3.713549,-3.224737 6.170341,-3.437 7.796146,-2.591434 1.625805,0.845565 1.783683,-0.06052 1.783683,-0.06052 0,0 2.745648,-6.067252 4.656487,-7.585447 1.91084,-1.518194 4.429042,-0.492732 4.429042,-0.492732 0,0 2.691974,-4.279332 5.045247,-3.884054 2.353272,0.395278 2.7196341,-0.12958 2.7196341,-0.12958 0,0 0.8857637,-0.07936 0.9043703,-0.940744 0.018607,-0.861383 2.2533663,-6.000195 5.0543243,-6.093495 2.80095787,-0.0933 5.1989668,-0.0766 5.5503184,1.652476 0.1802116,1.303411 0.8133523,0.156813 0.8133523,0.156813 0,0 0.8062945,-1.198717 1.8628913,-1.282076 1.1439937,-0.09025 4.0012407,0.145461 4.8864059,0.904718 1.2838264,1.40714 1.6897194,-0.439566 1.6897194,-0.439566 0,0 0.935151,-3.316705 4.872156,-3.449643 3.937005,-0.132939 5.123733,3.610584 5.123733,3.610584 l 1.230327,2.640939 c 0,0 0.277076,1.296162 0.930856,1.34493 0.65378,0.04877 1.124198,-1.5942 1.792579,-1.998981 0.668381,-0.404782 2.182468,-0.603184 2.837437,-0.09002 0.278273,0.218026 1.301114,0.152461 1.301114,0.152461 0,0 0.649335,-0.306095 0.722232,-1.463182 0.0729,-1.157087 1.818067,-11.048082 7.154733,-13.135657 5.336666,-2.087575 12.097358,-1.46184 12.097358,-1.46184 0,0 1.180577,-0.05855 1.203436,2.054981 0.02286,2.113531 -0.372278,3.495904 -0.472921,3.98005 -0.08027,0.386138 -0.129111,1.631678 -0.129111,1.631678 0,0 0.509096,2.2669 0.61688,3.925047 0.118791,1.827469 0.293309,1.790681 0.293309,1.790681 0,0 0.590605,0.378669 1.657689,-0.945883 1.067083,-1.324553 2.424866,-1.941648 4.091661,-1.59364 l 1.022029,0.03942 c 0,0 -0.66875,-3.370903 -0.174225,-4.40427 0.494524,-1.033367 4.893038,-5.184019 6.038696,-5.703335 1.145657,-0.519315 4.190426,-1.511759 5.516909,-0.748385 1.326483,0.763375 3.210454,2.004267 3.519617,3.496185 0.39449,1.903681 2.814011,0.711811 2.814011,0.711811 0,0 1.835065,-0.07151 2.330186,0.533346 0.495121,0.604856 2.461974,2.939329 2.90712,3.083801 0.445147,0.144473 0.642246,0.08063 1.03656,-0.258184 0,0 2.317881,-1.709804 3.791744,-1.573513 1.473864,0.136291 4.039811,1.782156 4.494472,3.78018 0.454661,1.998023 0.177784,5.377659 0.177784,5.377659 0,0 -0.077,1.267437 0.641709,1.632328 0.718714,0.364891 1.268462,0.166998 1.799305,-0.342912 0.530843,-0.50991 1.492548,-0.394766 1.74053,-0.187496 0.247982,0.20727 1.21179,0.634536 1.893706,-0.329337 0.681916,-0.963873 4.414212,-5.196031 7.604532,-5.698433 3.19032,-0.502403 8.55349,0.785546 10.50294,1.785804 1.94945,1.000258 3.28655,2.345721 3.30399,3.509686 0.0174,1.163964 0.42468,1.417453 0.42468,1.417453 0,0 0.4349,0.394998 0.85137,-0.24114 0.41647,-0.636139 10.11257,-1.058216 11.50917,0.99685 1.3966,2.055067 1.62035,5.647334 -0.28488,6.100416 -1.73483,0.412561 -2.6406,0.489632 -3.17265,0.439147 -0.55235,-0.05241 -2.1337,0.142204 -1.89886,1.390529 0.23483,1.248324 2.0515,9.279271 -2.15186,11.296768 -4.20335,2.017498 -11.78501,1.855318 -11.78501,1.855318 l -0.10658,0.02203 c 0,0 -4.20354,0.01801 -4.84415,-1.820434 -0.7022,-2.015207 -0.28212,-3.87257 -0.28212,-3.87257 0,0 0.33012,-1.319119 2.95909,-1.707932 2.29382,-0.339246 3.39824,-0.111647 4.11183,-0.11962 0.65683,-0.0073 2.93139,-0.700049 2.64957,-1.638193 -0.28182,-0.938144 -1.48695,-4.187227 -1.27793,-5.414993 0.20902,-1.227767 -0.88869,-0.610047 -0.88869,-0.610047 0,0 -5.99842,7.607463 -15.515975,9.181077 v 0 c -3.299782,0.537483 -6.365071,-2.000289 -5.850937,-4.962732 0.02678,-0.577308 -1.062421,-1.232154 -1.830862,0.386393 -0.768441,1.618547 -5.34292,0.526516 -7.713928,-1.05408 -2.371009,-1.580597 -1.860128,-5.531464 -1.860128,-5.531464 0,0 0.07545,-1.205153 -0.78742,-1.956481 -0.862875,-0.751327 -0.984258,-0.04022 -0.984258,-0.04022 0,0 -0.679151,1.933887 -2.174521,4.452149 -1.495371,2.518261 -5.01697,2.904091 -5.01697,2.904091 0,0 -2.311755,0.532415 -4.270243,-2.26404 -1.958488,-2.796456 -1.606278,-1.62032 -1.606278,-1.62032 0,0 0.0062,2.17933 -2.035942,3.483448 -2.042131,1.304119 -5.166277,4.245851 -7.689654,-0.23802 -2.523376,-4.48387 -3.039883,-2.371857 -3.039883,-2.371857 0,0 -0.332573,1.64074 -3.214138,2.648906 -2.881565,1.008166 -6.35262,-3.581892 -7.194268,-5.87239 0,0 -2.727207,3.796727 -3.237494,4.6567 -0.469189,0.790712 -3.10944,4.027324 -5.5942,4.30671 -2.484759,0.279385 -5.094368,-3.35512 -5.094368,-3.35512 0,0 -0.997167,1.307236 -1.158972,1.719109 -0.446657,1.136961 -0.513704,1.897798 -1.438193,2.100747 -0.924488,0.202949 -4.974066,1.569927 -6.670655,-0.459055 -1.696589,-2.028981 -3.512733,-4.774738 -3.512733,-4.774738 0,0 -0.739193,-1.070398 -0.619867,1.695252 0.119325,2.765649 -0.293014,7.845662 -3.417592,9.221502 -3.1245767,1.37584 -4.0258449,-0.226391 -4.8533492,-0.290806 -0.8275043,-0.06442 -1.815752,0.09889 -2.0918097,1.389501 -0.2760576,1.29061 -0.343027,3.846584 -2.3192063,5.571512 -1.97617929,1.724928 -5.2529737,-0.190104 -6.0021753,-0.672881 -0.7492016,-0.482777 -2.2375915,-1.009093 -2.4157121,-3.928397 -0.1494075,-2.448711 -0.381845,-3.225268 -0.6094506,-4.184582 -0.152515,-0.642822 -0.1964623,-1.15905 -0.3815348,-2.5757 -0.2840435,-2.17423 0.028541,-2.915031 -1.4907505,-3.826958 -0.7305847,-0.43852 -1.0578284,0.301064 -1.0578284,0.301064 l -0.8898091,1.220402 c -0.9787,1.342318 -1.961544,1.759562 -1.943371,3.0015 0.01817,1.241937 3.6605731,8.957362 3.3712577,11.726958 -0.2893154,2.769597 -2.2345487,5.069763 -4.6480807,5.79525 -2.413531,0.725487 -4.157474,-1.571328 -4.706779,-3.84868 -0.549305,-2.277353 -1.651868,-6.816142 -3.445343,-7.191487 -1.793475,-0.375345 -2.135315,0.159552 -1.754907,1.517627 0.380407,1.358076 2.543941,7.904281 1.361368,12.927549 -1.182573,5.023268 -1.317783,7.988376 -3.435529,8.273834 -2.117746,0.285458 -2.828963,0.296537 -3.958981,0.0066 -1.130018,-0.289975 -4.634551,-3.619834 -4.634551,-3.619834 l -3.91741,-4.541992 c 0,0 -1.268755,-1.854748 -2.231933,-0.758653 -0.963178,1.096095 -1.295703,2.916701 -0.726111,4.198013 0.569591,1.281311 12.1652,15.136852 13.821987,19.253485 1.656786,4.116631 3.592323,9.942601 3.002753,14.191531 -0.589569,4.24893 -1.457377,6.30831 -2.925801,6.62513 -1.468424,0.31682 -5.238494,-0.10707 -5.278446,-2.44161 -0.03995,-2.33453 0.527152,-7.24024 -1.293059,-10.84563 -1.82021,-3.60539 -3.984276,-7.423679 -4.922098,-8.238149 -0.937823,-0.814471 -9.847307,-13.937866 -9.847307,-13.937866 0,0 -0.279617,-0.701424 -1.208365,-0.615322 -0.928748,0.0861 -2.618353,0.281215 -1.96211,1.206071 0.656242,0.924856 3.010529,3.495602 4.20576,6.157837 1.195231,2.662235 3.412874,8.599041 3.380431,13.327669 -0.03244,4.72862 -0.889432,6.47191 -2.568799,7.01724 -1.679368,0.54533 -3.922404,0.0424 -3.922404,0.0424 0,0 -2.481224,-0.37035 -1.237702,0.96723 1.243521,1.33757 2.056255,3.24855 0.759333,5.68808 -1.296923,2.43953 -2.704308,3.94116 -5.169021,3.52473 -2.464714,-0.41642 -4.726694,-0.14785 -4.658727,0.15086 0.06797,0.29871 1.687153,1.78069 3.12592,2.80113 1.438768,1.02044 2.910481,3.69584 2.69917,5.50994 -0.211311,1.8141 -0.115597,4.6627 -2.900635,5.34007 -2.785038,0.67736 -3.253697,0.1782 -3.253697,0.1782 0,0 2.504417,1.37996 3.4369,3.01005 0.932484,1.63009 3.711436,6.36975 -0.588901,8.13932 -4.300337,1.76958 -5.888145,1.63097 -7.705141,-0.20045 -1.816996,-1.83141 -4.645713,-4.2883 -7.442587,-4.71758 -2.796874,-0.42927 -2.28362,2.17489 -2.28362,2.17489 0,0 0.281696,2.93905 3.407285,4.79821 3.125589,1.85916 9.020359,2.95185 9.396534,4.66924 0.376174,1.71738 1.779511,5.53386 0.701492,7.01357 -1.078019,1.47971 -1.367593,1.51622 -1.912968,1.40093 -0.545375,-0.11529 -1.058193,0.12927 -1.10711,0.54153 l -8.377127,-3.00106 c 0,0 -1.727442,-1.26184 -3.510473,0.20376 -1.783032,1.46559 -4.162595,0.88881 -4.84888,0.24323 -0.686285,-0.64558 -2.309822,-2.08436 -3.352759,-4.69107 -1.042937,-2.60672 -1.775506,-4.495 -1.225964,-6.66748 0.549541,-2.17248 1.086926,-2.53609 2.414755,-2.4106 z"
         id="path23525"
         sodipodi:nodetypes="cccsscssscscssscssscccssssscscsscsscscscssccsccsccssscsscsscscsccsssscsscsscssssssccssssssccscssssccccsscscscscsscscsscssscsssssssssscssssssssscccsssssssscssssscssssssscsssscssssccssssc" />
      <path
         style="fill:#f7f7f7;fill-opacity:1;stroke:#000000;stroke-width:0.264583px;stroke-linecap:butt;stroke-linejoin:miter;stroke-opacity:1"
         d="m 143.23132,52.814913 c -4.10169,-0.700583 -4.53165,1.258937 -4.31584,4.13055 0.21581,2.871613 2.93816,5.664745 6.40763,8.309486 3.46946,2.64474 5.58542,5.548365 3.65745,6.629971 -1.92797,1.081606 -5.31323,-0.09978 -6.57138,-0.86424 -1.25816,-0.764461 -3.30089,-1.47175 -2.92046,-3.548589 0.38043,-2.076842 -0.18772,-2.708336 -2.17487,-4.171178 -1.98714,-1.462841 -6.53062,-1.792914 -8.16624,0.383903 -1.63563,2.176817 -1.87751,5.964817 2.8763,9.818537 4.75381,3.853719 10.86817,6.108599 10.86817,6.108599 0,0 9.49385,3.349212 13.27049,-0.293002 3.77663,-3.642217 3.17161,-7.617926 2.62051,-8.667692 -0.5511,-1.049766 -1.10269,-3.324455 -1.10269,-3.324455 0,0 6.1957,0.321842 8.76918,-1.758813 2.57348,-2.080651 3.91475,-7.012593 1.42962,-9.682704 -2.48512,-2.670112 -24.64787,-3.070373 -24.64787,-3.070373 z"
         id="path52884" />
      <path
         style="fill:#f7f7f7;fill-opacity:1;stroke:#000000;stroke-width:0.264583px;stroke-linecap:round;stroke-linejoin:round;stroke-opacity:1"
         d="m 174.39762,79.118186 -8.62582,-4.626853 c 0,0 -5.0786,-1.18514 -5.61489,2.291408 -0.5363,3.476551 0.61472,4.165738 0.61472,4.165738 0,0 -6.06974,1.262123 -8.80059,4.154442 -2.73086,2.892317 -3.88571,7.491767 -1.01238,8.986779 2.87333,1.495015 9.70153,2.217259 9.70153,2.217259 0,0 0.4634,0.04145 -0.19743,0.703593 -0.66082,0.662141 -1.63368,4.385838 0.47267,6.248508 2.10635,1.86267 7.23095,2.85927 10.0608,2.22913 0,0 1.05636,-0.91141 1.13533,-2.14578 0.079,-1.23437 5.54617,-4.535863 8.09939,-5.67582 2.55322,-1.139958 2.97608,-2.581293 2.55706,-3.811541 -0.41902,-1.230248 -2.56717,-4.27431 -4.91831,-4.225983 -2.35114,0.04833 -9.94304,-1.219773 -9.94304,-1.219773 0,0 -0.57117,-0.06741 -0.16185,-0.498224 0.40932,-0.430816 7.29598,-2.068067 7.88715,-4.715855 0.59116,-2.647787 -1.25434,-4.077028 -1.25434,-4.077028 z"
         id="path53306" />
      <path
         style="fill:#f7f7f7;fill-opacity:1;stroke:#000000;stroke-width:0.264583px;stroke-linecap:round;stroke-linejoin:round;stroke-opacity:1"
         d="m 163.73836,108.37318 c -1.7299,1.74197 -0.7464,4.14598 0.0506,4.92356 0.79705,0.77758 9.76108,5.95276 11.60675,5.98165 1.84567,0.0289 5.26367,-0.31916 6.38439,-1.43832 1.12071,-1.11916 3.42073,-5.95366 3.42073,-5.95366 0,0 0.45183,-0.97771 1.22681,-0.53403 0.77498,0.44367 1.2204,1.09855 4.01921,1.16388 2.79881,0.0653 3.05525,-1.15585 3.24419,-2.11728 0.18894,-0.96143 1.02117,-4.05586 -2.20794,-6.20487 -3.2291,-2.14901 -6.87241,-4.08057 -10.31364,-3.47208 -3.44123,0.60849 -5.0419,4.38516 -5.29243,5.38767 -0.25053,1.00252 -0.44368,3.88049 -1.98069,3.46549 -1.53702,-0.415 -2.09214,-2.08386 -4.13088,-2.58883 -2.03874,-0.50496 -4.68173,0.33494 -4.68173,0.33494 -0.51403,0.16518 -1.34541,1.05188 -1.34541,1.05188 z"
         id="path55060"
         sodipodi:nodetypes="cssscssssssssscc" />
      <path
         style="fill:#f7f7f7;fill-opacity:1;stroke:#000000;stroke-width:0.264583px;stroke-linecap:round;stroke-linejoin:round;stroke-opacity:1"
         d="m 177.72052,206.60285 c -2.43591,-0.3055 -3.73845,1.9417 -3.86723,3.04771 -0.12874,1.10605 1.06024,11.36452 2.16483,12.84344 1.10458,1.47893 3.65763,3.97245 5.22831,4.1761 1.57069,0.20364 6.80332,-0.92861 6.80332,-0.92861 0,0 1.0501,-0.23953 1.17223,0.64508 0.12215,0.8846 -0.12425,1.63729 1.53374,3.89311 1.65801,2.25579 2.78147,1.71286 3.65809,1.27514 0.87661,-0.43772 3.83496,-1.66911 3.56383,-5.53846 -0.27112,-3.86934 -0.96744,-7.93379 -3.55134,-10.28662 -2.5839,-2.35282 -6.55182,-1.31302 -7.49857,-0.89902 -0.94677,0.41406 -3.78355,2.01964 -4.39389,0.54923 -0.61035,-1.47041 -0.41939,-2.80722 -0.82619,-4.78627 -0.42289,-2.05734 -2.33247,-3.56822 -2.33247,-3.56822 -0.44479,-0.30607 -1.65469,-0.42262 -1.65469,-0.42262 z"
         id="path55060-0"
         sodipodi:nodetypes="cssscssssssssscc" />
      <path
         style="fill:#f7f7f7;fill-opacity:1;stroke:#000000;stroke-width:0.264583px;stroke-linecap:butt;stroke-linejoin:miter;stroke-opacity:1"
         d="m 174.74149,134.97036 c -2.12658,-5.63072 0.46685,-7.00263 1.3088,-7.25917 0.84195,-0.25654 3.43577,-0.3367 5.04019,0.9727 1.60441,1.30939 3.27598,3.70014 4.94213,3.35039 1.66615,-0.34975 9.30156,-1.84907 9.30156,-1.84907 0,0 0.55883,0.005 0.89945,-0.67765 0.34063,-0.68251 1.88732,-3.81393 3.97781,-4.33934 2.09049,-0.52541 4.50975,0.90852 4.97419,1.51083 0.46443,0.6023 6.56427,12.64275 6.56427,12.64275 0,0 1.05636,2.91142 -2.35167,4.63176 -3.40803,1.72034 -6.38673,-3.91386 -6.38673,-3.91386 0,0 -0.55543,-0.74372 -1.74215,-0.77535 -1.18671,-0.0316 -11.73096,0.0494 -12.29687,0.36699 -0.56592,0.31758 -0.89468,0.33409 -0.93545,0.88987 -0.0408,0.55579 -0.36846,1.80706 0.0758,2.38888 0.44429,0.58182 5.77572,0.40793 7.84352,1.5054 2.06779,1.09747 8.13883,4.48993 8.47708,6.4595 0.33825,1.96957 0.48733,2.58464 0.48733,2.58464 0,0 0.34054,1.21124 0.89483,0.83308 0.5543,-0.37817 2.48798,-2.52267 3.74364,-2.47374 1.25565,0.0489 2.33052,-0.0436 4.09523,1.36781 1.76472,1.41143 3.03269,4.06672 3.03269,4.06672 0,0 1.90325,3.84491 0.26944,6.38645 -1.63382,2.54155 -2.17737,2.17793 -3.45362,2.12339 -1.27624,-0.0545 -3.11101,-0.9162 -3.91007,-1.18096 -0.79907,-0.26476 -20.56678,-2.52957 -22.91748,-2.54724 -2.35069,-0.0177 -8.79291,2.31005 -8.96841,3.91718 -0.1755,1.60713 1.27202,2.0827 1.27202,2.0827 0,0 -0.35016,2.51139 -3.68198,3.4595 -3.33182,0.94812 -6.41952,-0.98582 -6.99448,-2.90381 -0.57497,-1.91798 0.0261,-5.47487 1.69995,-6.85824 1.67384,-1.38338 7.81467,-5.8864 9.34699,-6.18747 1.53233,-0.30107 1.96589,-1.0943 1.34427,-1.54975 -0.62163,-0.45544 -3.78804,-3.36304 -3.78804,-3.36304 0,0 -1.05088,-0.52995 -0.15962,-2.58137 0.89127,-2.05142 3.69215,-3.59917 3.69215,-3.59917 0,0 1.23226,-0.55049 0.69315,-1.08232 -0.53912,-0.53183 -4.01768,-3.70231 -6.38994,-8.39899 z"
         id="path56642" />
      <path
         style="fill:#f7f7f7;fill-opacity:1;stroke:#000000;stroke-width:0.264583px;stroke-linecap:butt;stroke-linejoin:miter;stroke-opacity:1"
         d="m 178.97902,168.03502 c 0.95806,-2.99631 3.58898,-3.53899 6.69606,-3.76765 3.10708,-0.22866 12.60885,1.95946 15.01274,3.77554 2.40389,1.81609 5.30999,6.34639 4.96833,9.31143 -0.34167,2.96504 -0.76155,5.87059 -4.21126,6.31167 -3.4497,0.44109 -6.39833,-0.0362 -6.93944,-0.36739 -0.5411,-0.33119 -1.27183,-0.21531 -1.81247,0.30511 -0.54065,0.52041 -1.01514,1.29439 -0.25151,1.88187 0.76364,0.58748 7.44908,3.98278 9.47097,7.01042 2.02189,3.02765 3.47422,11.12206 1.62659,15.50697 -1.84762,4.38492 -6.23152,0.67246 -6.23152,0.67246 0,0 -0.40422,-1.14755 -2.08446,-1.3403 -1.68024,-0.19273 -4.83832,-0.62169 -4.83832,-0.62169 0,0 -1.62297,-0.29568 -1.25446,0.73779 0.36851,1.03347 2.63813,2.57782 1.8333,4.36185 -0.80484,1.78404 -1.26705,2.09534 -1.26705,2.09534 0,0 -2.89262,2.0615 -4.47521,0.60802 -1.58258,-1.45348 -5.49536,-7.13955 -6.20984,-8.30917 -0.71448,-1.16962 -2.09414,-3.36805 -1.7745,-5.13631 0.31964,-1.76826 1.00592,-2.03572 2.72006,-2.93416 1.71414,-0.89844 3.68302,-1.79785 3.68302,-1.79785 0,0 0.94243,-0.45905 0.20503,-1.41108 -0.7374,-0.95202 -4.76065,-4.96103 -5.07594,-7.49822 -0.3153,-2.53719 0.47669,-3.76933 0.79205,-4.17348 0.31536,-0.40415 1.77169,-0.97897 2.1039,-0.9459 0.3322,0.0331 1.33364,-0.14959 1.45805,-0.84143 0.1244,-0.69185 -4.65232,-11.90273 -4.14412,-13.43384 0.0825,-0.24871 0,0 0,0 z"
         id="path57255"
         sodipodi:nodetypes="cssssssssscscsscsssscssssssc" />
    </g>
    <g
       id="g60138"
       style="fill:#1a171b;fill-opacity:0.845669"
       transform="matrix(0.40686431,0,0,0.40686431,59.842922,98.915787)">
      <path
         style="fill:#1a171b;fill-opacity:0.845669;stroke:#000000;stroke-width:0.264583;stroke-linecap:round;stroke-linejoin:round;stroke-miterlimit:4;stroke-dasharray:none;stroke-opacity:1"
         d="m -88.987848,194.65694 c 0,0 20.302751,0.64392 22.288915,1.44985 1.986166,0.80592 2.479257,0.8688 2.479257,0.8688 0,0 1.623956,0.37074 1.21984,-1.93791 -0.404114,-2.30866 -1.42576,-2.98795 -2.50489,-3.19561 -1.079129,-0.20766 -10.400953,-1.30836 -11.280862,-0.75884 -0.879909,0.54952 -9.886746,-0.53355 -12.166423,-1.21046 -2.279676,-0.67691 -2.202764,-1.8951 -2.202764,-1.8951 l -0.04924,-1.8238 c -0.01633,-0.60472 0.496115,-2.955 -0.660468,-4.33406 -1.156584,-1.37906 -2.726648,-2.78688 -2.726648,-2.78688 -0.529453,-0.52613 -1.881857,-1.01819 -2.322965,-0.15429 0,0 -0.399081,0.52728 0.222303,0.94956 0,0 1.466819,1.86814 1.750102,2.89485 0.372751,1.35098 0.611708,3.71439 0.611708,3.71439 0,0 0.299959,1.03032 0.648285,3.07067 0.403728,2.36487 3.965797,13.46449 3.965797,13.46449 0,0 0.60822,1.29804 1.947998,2.17491 1.328216,0.8693 2.272093,1.66374 3.484788,0.36356 1.212694,-1.30017 1.850515,-2.06445 0.283138,-3.3882 -1.567377,-1.32375 -2.51645,-2.17668 -2.51645,-2.17668 0,0 -1.608827,-0.86512 -2.301857,-3.12482 -0.69303,-2.25969 -0.289575,-2.22927 -0.289575,-2.22927 z"
         id="path9227"
         sodipodi:nodetypes="cscsssscssscsscscssscscc" />
      <path
         style="fill:#1a171b;fill-opacity:0.845669;stroke:#000000;stroke-width:0.264583px;stroke-linecap:round;stroke-linejoin:round;stroke-opacity:1"
         d="m -72.730383,172.7556 3.315958,0.19758 c 0,0 1.503485,0.10277 1.05063,-1.36069 -0.594857,-1.92236 -1.562687,-7.20032 -3.031614,-8.6355 -1.468927,-1.43517 -0.26303,-2.19309 -0.26303,-2.19309 0,0 1.636784,-1.39534 2.408877,-0.0388 0.772097,1.35651 3.786175,9.09889 4.171765,10.74709 0.385593,1.6482 1.424242,3.83125 1.44235,4.7827 0.01812,0.95145 -1.06875,1.99055 -2.383748,2.0054 -1.314998,0.0148 -7.860482,-0.83367 -10.649757,-1.68899 -2.231778,-0.68436 -3.54462,-1.29986 -3.54462,-1.29986 0,0 -1.56415,-0.67669 -3.615785,-3.45502 -2.74809,-3.72147 -1.209445,-6.70592 -1.209445,-6.70592 0,0 0.585732,-1.27324 3.076019,-1.312 2.490288,-0.0388 2.983855,-0.0184 2.983855,-0.0184 0,0 1.429252,-0.11685 2.255347,1.35536 l 1.000302,1.55431 c 0.531821,0.82637 1.39751,3.52355 1.39751,3.52355 0,0 0.49265,2.36255 1.595386,2.54228 z"
         id="path17029"
         sodipodi:nodetypes="ccsscssscscsccccscc" />
      <path
         style="fill:#1a171b;fill-opacity:0.845669;stroke:#000000;stroke-width:0.264583px;stroke-linecap:round;stroke-linejoin:round;stroke-opacity:1"
         d="m 191.18455,172.01696 -3.29738,-0.40235 c 0,0 -1.49425,-0.19559 -1.13279,1.29309 0.47478,1.95548 1.11422,7.2832 2.49156,8.80651 1.37732,1.52331 0.12685,2.20516 0.12685,2.20516 0,0 -1.71996,1.29141 -2.40668,-0.10987 -0.6867,-1.40168 -3.216,-9.3157 -3.49888,-10.9846 -0.2829,-1.66889 -1.18448,-3.91203 -1.1437,-4.86277 0.0412,-0.95073 1.18985,-1.92061 2.50325,-1.85409 1.31337,0.0668 7.79384,1.31838 10.52486,2.34463 2.18516,0.82112 3.45741,1.51665 3.45741,1.51665 0,0 1.51929,0.77217 3.39511,3.6721 2.5126,3.88436 0.79225,6.76791 0.79225,6.76791 0,0 -0.66338,1.23456 -3.1513,1.11917 -2.48788,-0.11581 -2.97926,-0.16621 -2.97926,-0.16621 0,0 -1.43375,0.0282 -2.16719,-1.4923 l -0.90221,-1.61322 c -0.47969,-0.85768 -1.17684,-3.60325 -1.17684,-3.60325 0,0 -0.34556,-2.38851 -1.43506,-2.63612 z"
         id="path17029-2"
         sodipodi:nodetypes="ccsscssscscsccccscc" />
      <path
         style="fill:#1a171b;fill-opacity:0.845669;stroke:#000000;stroke-width:0.264583px;stroke-linecap:round;stroke-linejoin:round;stroke-opacity:1"
         d="m -20.114312,56.594973 c 0,0 0.94674,1.542689 1.368187,2.713721 l 0.799804,2.222334 c 0.343276,0.953825 1.26251,2.96969 1.435311,4.493703 0.165098,1.456075 1.415143,2.869084 1.415143,2.869084 0,0 0.678089,0.37328 1.534393,-0.06424 1.393881,-0.712192 2.393131,-2.15245 1.661888,-4.147455 -0.731244,-1.995005 -1.032314,-3.12825 -1.369396,-4.107322 0,0 -1.515964,-2.832649 -1.685411,-3.807539 0.156908,-1.771479 -0.460298,-5.318464 1.294786,-6.701612 1.755075,-1.383145 2.999739,-3.702628 2.999739,-3.702628 0,0 -0.860406,-2.599797 -2.68494,-1.728335 0,0 -3.014997,3.093174 -3.116443,4.578874 -0.101442,1.4857 -0.441438,1.66296 -0.581291,1.935633 -0.139856,0.272672 -0.385523,1.089001 -1.195645,-1.039109 -0.810122,-2.12811 -1.894209,-1.76774 -2.407201,-1.268776 -0.512998,0.498972 -2.767301,4.69071 -3.144724,6.056526 -0.377424,1.365814 0.377576,3.310446 1.310213,2.48565 0.932635,-0.824799 1.445333,-1.973309 2.365587,-0.788508 z"
         id="path23770-7"
         sodipodi:nodetypes="cssscssscsccssssssc" />
      <path
         style="fill:#1a171b;fill-opacity:0.845669;stroke:#000000;stroke-width:0.264583px;stroke-linecap:round;stroke-linejoin:round;stroke-opacity:1"
         d="m -78.073019,153.59438 c 0,0 1.770794,0.37484 2.910433,0.87498 l 2.162755,0.94919 c 0.92826,0.40738 3.023413,1.1278 4.248027,2.05129 1.170016,0.8823 3.055465,0.94783 3.055465,0.94783 0,0 0.737487,-0.23506 1.00941,-1.1574 0.442586,-1.50141 0.08535,-3.21759 -1.865291,-4.06005 -1.950642,-0.84245 -2.980025,-1.40395 -3.922334,-1.8332 0,0 -3.098419,-0.84961 -3.922326,-1.39761 -1.17724,-1.33299 -4.175375,-3.32628 -3.970994,-5.55151 0.204383,-2.22522 -0.621835,-4.72454 -0.621835,-4.72454 0,0 -2.478314,-1.16497 -3.101728,0.75849 0,0 0.169166,4.31617 1.177238,5.41225 1.008076,1.09607 0.902692,1.46473 1.004275,1.75386 0.101573,0.28912 0.524756,1.02917 -1.576743,0.15233 -2.101499,-0.87684 -2.58613,0.15768 -2.577176,0.87325 0.009,0.71559 1.498663,5.23592 2.229832,6.44971 0.731159,1.21378 2.661607,2.00435 2.705066,0.76009 0.04344,-1.24428 -0.436959,-2.40667 1.055955,-2.25893 z"
         id="path23770-7-9"
         sodipodi:nodetypes="cssscssscsccssssssc" />
      <path
         style="fill:#1a171b;fill-opacity:0.845669;stroke:#000000;stroke-width:0.264583px;stroke-linecap:round;stroke-linejoin:round;stroke-opacity:1"
         d="M 1.8089163,58.768285 C 0.74747425,57.946374 1.7324202,54.771492 1.7324202,54.771492 L 4.6584476,44.393016 c 0,0 0.2851177,-0.76262 0.9297192,0.02019 0.6446419,0.78278 1.4998257,1.975994 1.4998257,1.975994 0,0 0.3143683,0.976234 0.3274297,1.535487 0.018084,0.774326 0.1437793,3.531936 0.1437793,3.531936 0,0 -0.2195181,2.406104 -0.2952538,2.891969 -0.1654954,1.061696 1.8836766,2.184031 1.8836766,2.184031 0,0 0.9527237,0.594457 2.2690187,-1.354971 1.316304,-1.949432 1.045458,-6.319599 1.045458,-6.319599 0,0 0.295296,-3.542028 1.346181,-7.892688 0,0 -0.14352,-1.210749 1.224855,0.26063 1.368333,1.471419 5.878667,8.261415 5.878667,8.261415 0,0 0.553166,1.072036 2.196215,0.832205 1.64304,-0.239825 2.081891,-0.154851 2.765777,-2.149149 0.683892,-1.994304 1.572606,-4.308076 1.737868,-4.638768 0.165262,-0.330693 0.805148,-2.178104 0.339936,-2.683085 -0.465235,-0.50496 -1.394445,-0.766898 -1.758903,0.174783 -0.36445,0.941673 -2.433593,5.303206 -2.433593,5.303206 0,0 -0.257571,1.360286 -1.323927,-0.321758 -1.066362,-1.682036 -2.409617,-6.662265 -2.409617,-6.662265 0,0 -0.45626,-2.477306 -2.517906,-3.859623 -2.061638,-1.382322 -2.608281,-0.949208 -3.154264,0.139839 -0.545992,1.089055 -3.801585,7.573347 -3.801585,7.573347 0,0 -0.52885,1.481277 -0.929834,0.05546 C 9.2209784,41.825781 9.376712,39.859462 7.8492181,38.910775 6.3217248,37.962089 4.9312987,37.758253 3.8153619,40.095964 2.6994327,42.43367 -0.74510041,51.802385 -0.77511861,53.037999 c 0,0 -1.52220269,-3.57743 -1.37100829,-7.805784 0.1512021,-4.228361 1.51062294,-6.80795 -0.092989,-7.058502 -1.6036192,-0.250547 -2.2046215,-0.30435 -3.3214656,1.513173 -1.1168447,1.817522 -1.3041276,3.148304 -1.4695001,3.741786 l -0.7557129,2.122437 c -0.1155963,0.324655 -0.2265488,0.950188 -0.1425618,1.099509 0.083979,0.149329 0.5687561,0.931881 0.9804137,0.54142 0.4116633,-0.390471 1.1834742,0.715377 1.1834742,0.715377 0,0 2.9881453,8.698613 2.8127408,10.452972 -0.175412,1.754364 -0.5770325,3.070343 0.057011,3.617405 0.6340513,0.547055 0.7992171,0.598982 0.7992171,0.598982 0,0 0.6592533,0.396785 0.8738571,0.516602 0.49546187,0.276625 1.19183562,1.384832 2.17356785,-0.459444 C 1.9335599,60.789739 2.8126971,59.54966 1.8089163,58.768285 Z"
         id="path24324-5"
         sodipodi:nodetypes="cccccscscsccccssscscsccscssscssscscscsscscc" />
      <path
         style="fill:#1a171b;fill-opacity:0.845669;stroke:#000000;stroke-width:0.264583px;stroke-linecap:round;stroke-linejoin:round;stroke-opacity:1"
         d="m -61.773697,138.18509 c -1.31176,0.28545 -3.112146,-2.50893 -3.112146,-2.50893 l -6.074014,-8.90959 c 0,0 -0.401284,-0.70841 0.612737,-0.69953 1.014017,0.009 2.477836,0.11995 2.477836,0.11995 0,0 0.9501,0.38621 1.387081,0.73546 0.605034,0.48359 2.799121,2.15876 2.799121,2.15876 0,0 1.702932,1.71392 2.026633,2.08408 0.707334,0.80888 2.883848,-0.0405 2.883848,-0.0405 0,0 1.067608,-0.34824 0.419226,-2.60933 -0.648376,-2.2611 -4.171515,-4.86095 -4.171515,-4.86095 0,0 -2.52479,-2.50172 -5.183891,-6.10197 0,0 -1.020075,-0.6678 0.986591,-0.77126 2.006669,-0.10339 10.10775,0.80198 10.10775,0.80198 0,0 1.176923,0.26474 2.048629,-1.1485 0.871707,-1.41323 1.218745,-1.69496 0.129713,-3.50022 -1.089028,-1.80526 -2.291306,-3.97271 -2.43857,-4.3118 -0.147273,-0.33909 -1.151997,-2.01627 -1.837851,-1.98415 -0.685855,0.0322 -1.483525,0.576 -0.995983,1.46024 0.487547,0.88424 2.500845,5.27183 2.500845,5.27183 0,0 0.877014,1.07125 -1.097083,0.80791 -1.974086,-0.26332 -6.653676,-2.43322 -6.653676,-2.43322 0,0 -2.191628,-1.24177 -4.575401,-0.54981 -2.38377,0.69196 -2.403008,1.38913 -1.919147,2.50716 0.48387,1.11804 3.361797,7.77856 3.361797,7.77856 0,0 0.795465,1.35687 -0.554797,0.74824 -1.3503,-0.60865 -2.757175,-1.99117 -4.465487,-1.43 -1.708305,0.56119 -2.757737,1.49582 -1.683081,3.85279 1.074663,2.35696 6.041732,11.01524 6.969384,11.83201 0,0 -3.719489,-1.13159 -6.862829,-3.96378 -3.143336,-2.8322 -4.246946,-5.53115 -5.469127,-4.46315 -1.222186,1.068 -1.649503,1.49402 -0.974084,3.51752 0.675417,2.0235 1.574977,3.02193 1.923563,3.52992 l 1.141092,1.94261 c 0.17454,0.29715 0.582648,0.78403 0.751035,0.81559 0.168393,0.0315 1.079541,0.16277 1.044748,-0.40355 -0.03479,-0.56632 1.308513,-0.44741 1.308513,-0.44741 0,0 8.585913,3.29802 9.817712,4.55946 1.231803,1.26144 1.982322,2.41462 2.808881,2.28015 0.826559,-0.13449 0.97246,-0.22771 0.97246,-0.22771 0,0 0.526478,-0.1957 0.943441,-0.40805 0.50565,-0.25752 1.826927,-0.0238 1.044205,-1.96089 -0.782718,-1.93701 -1.154469,-3.33716 -2.398126,-3.06986 z"
         id="path24324-5-3"
         sodipodi:nodetypes="cccccscscsccccssscscsccscssscssscscscsscsccc" />
      <path
         style="fill:#1a171b;fill-opacity:0.845669;stroke:#000000;stroke-width:0.264583px;stroke-linecap:round;stroke-linejoin:round;stroke-opacity:1"
         d="m 62.488471,45.348916 c -0.564208,-1.218141 1.771152,-3.583745 1.771152,-3.583745 l 7.37339,-7.868133 c 0,0 0.60405,-0.545898 0.816159,0.445723 0.212158,0.991614 0.422388,2.444508 0.422388,2.444508 0,0 -0.17009,1.0114 -0.415826,1.513941 -0.340244,0.695803 -1.497521,3.201981 -1.497521,3.201981 0,0 -1.302037,2.035245 -1.592843,2.431771 -0.635461,0.866473 0.667464,2.805836 0.667464,2.805836 0,0 0.572343,0.966171 2.638017,-0.158948 2.065683,-1.125119 3.836089,-5.129788 3.836089,-5.129788 0,0 1.891997,-3.008906 4.826923,-6.388079 0,0 0.429687,-1.140999 0.967559,0.795001 0.537817,1.936017 1.417979,10.039873 1.417979,10.039873 0,0 -0.0022,1.206337 1.566976,1.749432 1.569122,0.543095 1.919655,0.820471 3.444492,-0.635481 1.524846,-1.455955 3.378541,-3.101302 3.677432,-3.318863 0.298892,-0.217562 1.717076,-1.563346 1.536399,-2.225754 -0.180707,-0.662399 -0.885177,-1.322524 -1.642063,-0.654156 -0.756875,0.668366 -4.600862,3.588654 -4.600862,3.588654 0,0 -0.854602,1.089209 -1.027393,-0.89486 -0.1728,-1.984065 0.926182,-7.023832 0.926182,-7.023832 0,0 0.734811,-2.409413 -0.459561,-4.58534 -1.194364,-2.175928 -1.878991,-2.04292 -2.864852,-1.327239 -0.985873,0.715684 -6.860007,4.97473 -6.860007,4.97473 0,0 -1.151129,1.071805 -0.851071,-0.378611 0.300053,-1.450424 1.343097,-3.124557 0.423441,-4.669704 -0.919656,-1.545145 -2.06035,-2.365907 -4.1268,-0.803859 -2.06644,1.562047 -9.435555,8.295083 -10.030759,9.378307 0,0 0.294624,-3.876635 2.374484,-7.5612 2.07987,-3.684568 4.473794,-5.34933 3.165318,-6.309664 -1.308484,-0.960332 -1.817325,-1.284645 -3.645223,-0.184862 -1.827897,1.099781 -2.606518,2.195137 -3.026428,2.645965 l -1.64757,1.536669 c -0.252017,0.235054 -0.638357,0.739379 -0.632497,0.910599 0.0058,0.171224 0.07617,1.089075 0.62133,0.931823 0.545165,-0.157257 0.721574,1.179707 0.721574,1.179707 0,0 -1.349537,9.098001 -2.312515,10.574895 -0.962988,1.476895 -1.925096,2.460483 -1.613886,3.237938 0.311221,0.777452 0.433969,0.899554 0.433969,0.899554 0,0 0.406968,0.647521 0.520265,0.868619 0.258782,0.50501 0.504361,1.741271 2.224611,0.555567 1.720123,-1.185677 3.005743,-1.853359 2.474078,-3.008978 z"
         id="path24324-5-1"
         sodipodi:nodetypes="cccccscscsccccssscscsccscssscssscscscsscsccc" />
      <path
         style="fill:#1a171b;fill-opacity:0.845669;stroke:#000000;stroke-width:0.264583px;stroke-linecap:round;stroke-linejoin:round;stroke-opacity:1"
         d="m 107.42797,34.43698 c 0,0 -4.41651,-0.09265 -7.35398,2.494462 -2.937488,2.587115 -4.935924,8.383916 -5.582798,11.551783 -0.646885,3.167866 1.423832,4.302474 2.457596,4.120393 1.033753,-0.182079 8.222432,-2.339672 13.690172,-7.754584 5.46776,-5.414902 4.97773,-6.691094 2.0411,-8.633718 -2.46367,-1.629759 -3.44818,-1.579283 -3.44818,-1.579283 z"
         id="path24536-3-5"
         sodipodi:nodetypes="sssssscs" />
      <path
         style="fill:#1a171b;fill-opacity:0.845669;stroke:#000000;stroke-width:0.264583px;stroke-linecap:round;stroke-linejoin:round;stroke-opacity:1"
         d="m -36.172846,61.197979 c 0,0 -2.27336,3.787609 -1.486246,7.621971 0.787107,3.834379 4.82655,8.447355 7.255124,10.5818 2.428567,2.134454 4.441605,0.900403 4.796852,-0.08733 0.355244,-0.987725 2.051821,-8.298945 0.06648,-15.733721 -1.985318,-7.434788 -3.336392,-7.643103 -6.480755,-6.058629 -2.637952,1.329284 -3.082979,2.20892 -3.082979,2.20892 z"
         id="path24536-3-5-2"
         sodipodi:nodetypes="sssssscs" />
      <path
         style="fill:#1a171b;fill-opacity:0.845669;stroke:#000000;stroke-width:0.264583px;stroke-linecap:round;stroke-linejoin:round;stroke-opacity:1"
         d="m -61.775055,90.912928 c 0,0 -1.177731,4.257593 0.606061,7.741839 1.783789,3.484263 6.909678,6.849063 9.820581,8.256363 2.910897,1.40729 4.52063,-0.32012 4.598821,-1.36684 0.07818,-1.04675 -0.242111,-8.545407 -4.143275,-15.178531 -3.901147,-6.633144 -5.258725,-6.472585 -7.864878,-4.104981 -2.186424,1.986287 -2.380022,2.952893 -2.380022,2.952893 z"
         id="path24536-3-5-2-0"
         sodipodi:nodetypes="sssssscs" />
      <path
         style="fill:#1a171b;fill-opacity:0.845669;stroke:#000000;stroke-width:0.264583px;stroke-linecap:round;stroke-linejoin:round;stroke-opacity:1"
         d="m 42.300948,36.304598 c 0,0 -5.610257,11.820556 -8.506696,12.788667 -2.896438,0.96811 -2.85406,-6.839209 -1.923161,-10.27095 0.930897,-3.431739 2.038779,-10.484573 5.919277,-12.678437 3.880498,-2.193864 9.02888,-2.014723 9.02888,-2.014723 0,0 1.225807,-0.120291 1.283332,1.414367 0.05753,1.534658 -0.390366,1.281661 -1.061236,1.386349 -0.670866,0.10469 -0.630822,0.42165 -0.542747,1.046091 0.08808,0.62444 1.73129,10.177454 3.227157,11.90227 1.495867,1.724814 4.655021,-3.913139 4.655021,-3.913139 0,0 0.762294,-1.607596 1.501992,-0.471462 0.739701,1.136132 1.026329,2.087738 -0.619644,4.263578 -1.645973,2.175841 -4.870251,7.064148 -6.457635,6.732828 -1.587383,-0.331319 -4.540411,-3.862604 -5.623599,-7.571483 -1.083191,-3.708876 -0.880941,-2.613956 -0.880941,-2.613956 z"
         id="path25068" />
      <path
         style="fill:#1a171b;fill-opacity:0.845669;stroke:#000000;stroke-width:0.264583px;stroke-linecap:round;stroke-linejoin:round;stroke-opacity:1"
         d="m 191.41912,198.55535 c 0,0 -9.82563,-8.64044 -9.96119,-11.69139 -0.13555,-3.05094 7.36001,-0.86635 10.40424,0.9711 3.04419,1.83744 9.52171,4.8394 10.56567,9.17315 1.04399,4.33377 -0.54198,9.23505 -0.54198,9.23505 0,0 -0.22093,1.21171 -1.71239,0.84563 -1.49146,-0.36612 -1.1252,-0.72731 -1.04166,-1.40113 0.0835,-0.67382 -0.23222,-0.72235 -0.85684,-0.80913 -0.62463,-0.0868 -10.26164,-1.12992 -12.33091,-0.16518 -2.06927,0.96475 2.48449,5.5506 2.48449,5.5506 0,0 1.33647,1.17443 0.0409,1.57372 -1.29558,0.3993 -2.28932,0.4136 -3.92954,-1.76658 -1.64023,-2.18017 -5.45527,-6.62281 -4.70081,-8.05818 0.75448,-1.4354 4.96091,-3.30523 8.82465,-3.32836 3.86374,-0.0232 2.75537,-0.1293 2.75537,-0.1293 z"
         id="path25068-1" />
      <path
         style="fill:#1a171b;fill-opacity:0.845669;stroke:#000000;stroke-width:0.264583px;stroke-linecap:round;stroke-linejoin:round;stroke-opacity:1"
         d="m -50.081804,79.230833 c -2.087689,1.229053 -4.111971,0.952899 -4.524822,-0.02673 -0.41285,-0.979622 -0.04244,-3.125904 -0.04244,-3.125904 0,0 0.05863,-1.262657 1.169803,-0.917871 1.111175,0.344784 3.005317,-0.231894 2.238271,-1.885736 -0.767045,-1.653841 -3.474008,-3.58359 -3.791788,-8.182218 -0.317783,-4.598625 0.69066,-7.139879 2.223608,-8.603131 1.532948,-1.463254 3.315565,-0.393604 4.163828,0.196813 0.848259,0.590418 1.682559,3.576619 -1.084432,4.561023 -2.703826,0.520773 -2.522379,1.448058 -2.239563,2.335619 0.282816,0.88756 2.884456,7.752632 3.437257,8.846014 0.552802,1.093382 0.743537,0.571222 1.961142,-0.07949 1.217605,-0.650714 3.655092,-3.316959 4.120728,-4.190802 0.465636,-0.873844 1.890395,-0.7208 1.802976,0.636164 -0.08742,1.356964 -0.950914,3.875354 -3.204154,6.078218 -2.25324,2.202863 -1.549278,2.900784 -0.7716,3.832663 0.777678,0.93188 9.99531,12.471425 9.99531,12.471425 0,0 5.829225,8.88692 6.383389,12.74781 0.554163,3.86088 0.950751,6.63333 0.849351,8.22117 -0.1014,1.58785 -0.153973,3.15567 -0.153973,3.15567 0,0 -0.547983,1.48804 -1.846452,0.46056 -1.29847,-1.02748 -0.474093,-2.63237 -0.474093,-2.63237 0,0 0.34674,-1.24345 0.252822,-2.57542 -0.120549,-1.70965 -1.184873,-6.96994 -3.509019,-10.898693 -2.324146,-3.92876 -13.544266,-18.521442 -14.341656,-20.111375 -0.79739,-1.589934 -1.41327,-0.997129 -2.614493,-0.313407 z"
         id="path25265"
         sodipodi:nodetypes="sscssssscssssssscsscscsssss" />
      <path
         style="fill:#1a171b;fill-opacity:0.845669;stroke:#000000;stroke-width:0.264583px;stroke-linecap:round;stroke-linejoin:round;stroke-opacity:1"
         d="m 120.67134,40.768682 c 1.4667,-0.242898 8.14713,-0.219427 8.31024,1.145257 0.1631,1.364681 -0.24635,2.75113 -2.33462,2.544138 -2.08827,-0.206994 -5.03351,-0.933222 -4.59353,1.834118 0.43997,2.767343 3.41546,10.584744 -3.50644,11.667532 -6.9219,1.082789 -11.65257,-0.02964 -9.22603,-1.746265 2.40017,-1.04987 5.2147,-1.038668 5.2147,-1.038668 0,0 3.33372,0.177329 3.60651,-3.544469 -0.37626,-1.809017 -0.99319,-2.397544 -0.99319,-2.397544 0,0 -0.4281,-0.48879 -0.46994,-2.026781 0.006,-2.133752 0.42886,-4.561742 1.67429,-5.345217 1.24542,-0.783475 2.31801,-1.092101 2.31801,-1.092101 z"
         id="path25542"
         sodipodi:nodetypes="csssscccccsc" />
      <path
         style="fill:#1a171b;fill-opacity:0.845669;stroke:#000000;stroke-width:0.264583px;stroke-linecap:round;stroke-linejoin:round;stroke-opacity:1"
         d="m 185.52768,103.01219 c 1.36016,0.60016 6.93647,4.27892 6.32545,5.51003 -0.61104,1.2311 -1.71301,2.16679 -3.34678,0.84979 -1.63378,-1.31701 -3.70012,-3.53783 -4.84779,-0.98155 -1.14768,2.55629 -2.94013,10.7265 -9.32442,7.84102 -6.38429,-2.88547 -9.73291,-6.40732 -6.76246,-6.51446 2.58315,0.4363 4.9318,1.98729 4.9318,1.98729 0,0 2.69202,1.97437 4.95882,-0.99005 0.67607,-1.71961 0.48227,-2.54991 0.48227,-2.54991 0,0 -0.0905,-0.64343 0.71697,-1.9531 1.17377,-1.78193 2.85746,-3.58169 4.32859,-3.55501 1.47111,0.0267 2.53755,0.35595 2.53755,0.35595 z"
         id="path25542-6"
         sodipodi:nodetypes="csssscccccsc" />
      <path
         style="fill:#1a171b;fill-opacity:0.845669;stroke:#000000;stroke-width:0.264583px;stroke-linecap:round;stroke-linejoin:round;stroke-opacity:1"
         d="m 194.65714,220.03648 c 0.4002,1.43181 1.0999,8.07553 -0.23913,8.38538 -1.33901,0.30985 -2.76163,0.0529 -2.78186,-2.04553 -0.0203,-2.09842 0.38295,-5.10495 -2.32051,-4.36806 -2.70346,0.73691 -10.1529,4.54101 -11.9785,-2.22304 -1.8256,-6.76404 -1.23176,-11.58733 0.73745,-9.36083 1.30347,2.27244 1.59697,5.07165 1.59697,5.07165 0,0 0.18454,3.33333 3.91398,3.2017 1.75766,-0.56985 2.27595,-1.24685 2.27595,-1.24685 0,0 0.43956,-0.47853 1.96401,-0.68654 2.12189,-0.22497 4.58138,-0.0674 5.49506,1.08594 0.91363,1.15332 1.33657,2.18618 1.33657,2.18618 z"
         id="path25542-6-6"
         sodipodi:nodetypes="csssscccccsc" />
      <path
         style="fill:#1a171b;fill-opacity:0.845669;stroke:#000000;stroke-width:0.264583px;stroke-linecap:butt;stroke-linejoin:miter;stroke-opacity:1"
         d="m 156.87939,59.032049 c 2.85586,0.165524 4.04308,1.517314 2.14509,3.00913 -1.89798,1.491816 -1.49574,2.46752 0.0101,2.935158 1.50585,0.467641 4.8981,0.06175 6.19265,-1.442426 1.29455,-1.504178 2.65291,-4.410149 1.2897,-5.835896 -1.36321,-1.425747 -21.10215,-2.404568 -21.10215,-2.404568 0,0 -6.37672,-0.393075 -3.3303,2.938672 3.04641,3.331747 8.8511,7.534259 9.76038,9.979122 0.90927,2.444867 1.59285,5.164852 -2.77532,6.388114 -4.36817,1.223264 -8.01982,-1.226133 -11.0473,-3.227473 -3.02748,-2.001342 -3.40978,-2.840881 -3.40978,-2.840881 0,0 3.43633,-1.16295 1.63127,-2.616798 -1.80507,-1.453846 -4.70035,-1.154623 -4.90142,0.208471 -0.20106,1.363096 -0.77273,4.046765 5.20368,7.53555 5.9764,3.488785 12.25668,4.572285 12.25668,4.572285 0,0 4.29758,0.920687 6.36833,-1.248394 2.07076,-2.16908 2.0447,-5.055552 0.54561,-7.910229 -1.49909,-2.854674 -9.74259,-11.526091 -9.74259,-11.526091 z"
         id="path53079" />
      <path
         style="fill:#1a171b;fill-opacity:0.845669;stroke:#000000;stroke-width:0.264583px;stroke-linecap:round;stroke-linejoin:round;stroke-opacity:1"
         d="m 166.1568,81.110827 c -11.33766,4.148389 -13.11045,6.20767 -13.62639,7.248459 -0.51593,1.040789 -0.90937,2.65054 0.93388,3.731157 1.84325,1.080619 16.60356,1.716164 16.60356,1.716164 0,0 0.9404,-0.02344 0.46487,0.785976 -0.47553,0.809414 -5.65639,3.828328 -7.52613,4.186333 -0.84522,0.245374 -1.53292,2.090504 1.3183,3.467564 2.85121,1.37705 5.36604,1.71446 4.96385,-0.24089 -0.4022,-1.95535 8.02314,-6.292072 9.45467,-6.515939 1.43153,-0.223867 1.69218,-1.408327 0.73829,-2.26834 -0.95388,-0.860014 -0.91888,-1.396911 -2.86159,-1.435387 -1.94272,-0.03848 -16.64618,-1.426825 -16.64618,-1.426825 0,0 -1.40725,-0.280174 -0.48602,-0.936613 0.92122,-0.656439 10.74928,-5.867967 11.92806,-6.044688 1.58274,-0.237282 1.41513,-0.855432 1.41513,-0.855432 0,0 -0.24804,-1.025231 -1.64717,-1.791125 -1.39914,-0.765895 -6.55432,-4.130573 -6.55432,-4.130573 0,0 -0.97725,-0.539669 -1.62432,-0.215513 -0.64706,0.324157 -0.97138,1.108198 -0.47188,1.729204 0.49949,0.621007 3.62339,2.996468 3.62339,2.996468 z"
         id="path53668"
         sodipodi:nodetypes="csscscssssscsscscssc" />
      <path
         style="fill:#1a171b;fill-opacity:0.845669;stroke:#000000;stroke-width:0.264583px;stroke-linecap:butt;stroke-linejoin:miter;stroke-opacity:1"
         d="m 203.28371,137.55275 c -1.90199,-1.92898 -6.2346,-1.17963 -7.86622,-1.02675 -1.63161,0.15288 -8.17097,1.09691 -9.2577,1.54637 -1.08674,0.44947 -1.14203,0.42404 -1.12014,0.98169 0.0219,0.55764 0.602,2.06914 0.0583,2.54461 -0.54372,0.47546 -1.22081,0.0375 -2.21829,-0.86737 -0.99749,-0.90481 -3.97208,-4.22206 -5.16477,-7.85326 -1.19269,-3.6312 0.75472,-2.91174 1.54044,-2.39938 0.78572,0.51236 2.81539,2.17721 3.16497,3.23965 0.34959,1.06244 0.7251,0.9967 0.7251,0.9967 0,0 13.88823,-2.67122 16.08289,-2.65568 2.19466,0.0155 2.45663,-0.60542 2.03979,-1.01213 -0.41683,-0.40672 -2.074,-0.73205 -1.9894,-1.70384 0.0846,-0.97178 0.95652,-1.64388 0.95652,-1.64388 0,0 0.838,-0.9645 2.07875,-0.22173 1.24074,0.74278 3.51412,3.92415 4.51018,7.09658 0.99606,3.17243 2.22767,4.35065 1.99252,5.59295 -0.23515,1.2423 -1.3754,1.15506 -2.19772,0.43683 -0.82231,-0.71822 -2.54561,-2.6829 -3.3352,-3.05136 z"
         id="path56986" />
      <path
         style="fill:#1a171b;fill-opacity:0.845669;stroke:#000000;stroke-width:0.264583px;stroke-linecap:butt;stroke-linejoin:miter;stroke-opacity:1"
         d="m 208.89877,157.23672 c -0.98456,-1.25463 -0.53613,-1.68265 -0.0358,-1.94297 0.50035,-0.26032 1.56422,-0.68901 2.84569,0.42073 1.28146,1.10974 2.57421,2.39966 2.87047,4.8296 0.29625,2.42994 -0.0199,2.37012 -0.81296,2.34578 -0.79302,-0.0243 -22.06285,-3.83082 -26.69664,-3.02831 -4.63379,0.80252 -10.40474,2.59997 -11.71305,4.70678 -1.30831,2.10681 -0.41708,2.50768 -0.41708,2.50768 0,0 0.72049,0.17992 0.70185,0.79895 -0.0187,0.61904 -0.1036,1.42324 -0.74987,1.36239 -0.64626,-0.0609 -3.46625,0.15096 -3.81613,-2.01529 -0.34988,-2.16626 0.96179,-3.4315 0.96179,-3.4315 0,0 4.63499,-4.51675 7.02825,-5.50851 2.39326,-0.99175 8.30299,-2.63315 8.30299,-2.63315 0,0 -1.65009,-2.13704 -4.22613,-3.4169 -2.57604,-1.27987 -3.72533,-3.05154 -3.25833,-4.04508 0.46699,-0.99355 2.79612,-1.51196 5.72707,-1.91837 2.93094,-0.4064 8.18778,-0.17233 11.19641,1.5446 3.00863,1.71693 6.2072,3.787 5.6169,6.43393 -0.5903,2.64691 -1.59058,3.5891 -1.59058,3.5891 l 7.83641,0.3785 c 0,0 1.13235,-0.061 0.22871,-0.97796 z"
         id="path57251" />
    </g>
    <g
       id="g60148"
       style="fill:#f7f7f7;fill-opacity:1"
       transform="matrix(0.40686431,0,0,0.40686431,59.842922,98.915787)">
      <path
         style="fill:#f7f7f7;fill-opacity:1;stroke:#000000;stroke-width:0.264583px;stroke-linecap:round;stroke-linejoin:round;stroke-opacity:1"
         d="m -78.050634,168.71996 c 0,0 1.018612,0.34136 1.024077,1.18084 0.006,0.92109 -0.04347,1.93554 -0.04347,1.93554 0,0 0.195299,1.05793 -1.153292,0.28553 -1.348595,-0.77241 -2.595473,-1.37696 -2.595473,-1.37696 0,0 -0.759243,-0.50206 -0.700897,-1.55474 0.05835,-1.05267 0.458629,-1.23438 0.458629,-1.23438 0,0 0.520674,-0.49098 1.453136,-0.0505 0.937937,0.44306 1.557288,0.81468 1.557288,0.81468 z"
         id="path11864"
         sodipodi:nodetypes="cscscscscc" />
      <path
         style="fill:#f7f7f7;fill-opacity:1;stroke:#000000;stroke-width:0.264583px;stroke-linecap:round;stroke-linejoin:round;stroke-opacity:1"
         d="m 198.48832,173.7176 c 0,0 1.01861,0.34136 1.02407,1.18084 0.006,0.92109 -0.0435,1.93554 -0.0435,1.93554 0,0 0.1953,1.05793 -1.15329,0.28553 -1.34859,-0.77241 -2.36448,-1.47287 -2.36448,-1.47287 0,0 -0.44476,-0.61742 -0.57402,-1.45883 -0.16008,-1.04206 0.10076,-1.23438 0.10076,-1.23438 0,0 0.52067,-0.49098 1.45314,-0.0505 0.93793,0.44306 1.55728,0.81468 1.55728,0.81468 z"
         id="path11864-6"
         sodipodi:nodetypes="cscscscscc" />
      <path
         style="fill:#f7f7f7;fill-opacity:1;stroke:#000000;stroke-width:0.264583px;stroke-linecap:round;stroke-linejoin:round;stroke-opacity:1"
         d="m 107.70399,38.619356 c -2.53363,-0.746616 -5.53426,1.659865 -6.21933,3.24267 -0.68506,1.582804 -2.015732,6.05121 -1.704831,6.697306 0.190765,0.568653 1.342171,0.01501 3.010811,-1.24519 1.66865,-1.260202 3.82724,-3.621795 4.87083,-5.04104 1.05068,-1.428894 1.36961,-2.340993 1.36961,-2.340993 0,0 0.74883,-0.895458 -1.32709,-1.312753 z"
         id="path24538-6-6"
         sodipodi:nodetypes="cscsscc" />
      <path
         style="fill:#f7f7f7;fill-opacity:1;stroke:#000000;stroke-width:0.264583px;stroke-linecap:round;stroke-linejoin:round;stroke-opacity:1"
         d="m -32.811303,63.569325 c -1.793887,1.938733 -0.969832,5.695842 0.144255,7.012429 1.11409,1.316579 4.527137,4.492811 5.244097,4.50109 0.594229,0.08154 0.609353,-1.195967 0.221021,-3.250636 -0.388329,-2.054678 -1.546016,-5.03736 -2.35437,-6.602576 -0.813852,-1.575852 -1.489524,-2.266583 -1.489524,-2.266583 0,0 -0.469892,-1.068547 -1.765479,0.606276 z"
         id="path24538-6-6-7"
         sodipodi:nodetypes="cscsscc" />
      <path
         style="fill:#f7f7f7;fill-opacity:1;stroke:#000000;stroke-width:0.264583px;stroke-linecap:round;stroke-linejoin:round;stroke-opacity:1"
         d="m -58.183611,92.244339 c -1.085772,2.407866 0.888182,5.709144 2.362547,6.60404 1.474365,0.894883 5.71907,2.823581 6.401582,2.603861 0.58937,-0.11133 0.198245,-1.32753 -0.822161,-3.152698 -1.020407,-1.825179 -3.064937,-4.28618 -4.328294,-5.513889 -1.271945,-1.236049 -2.131918,-1.676605 -2.131918,-1.676605 0,0 -0.784752,-0.86415 -1.481756,1.135291 z"
         id="path24538-6-6-7-9"
         sodipodi:nodetypes="cscsscc" />
      <path
         style="fill:#f7f7f7;fill-opacity:1;stroke:#000000;stroke-width:0.264583px;stroke-linecap:round;stroke-linejoin:round;stroke-opacity:1"
         d="m 38.818068,28.900244 c 0,0 -3.841279,10.068078 -3.221236,13.662797 0.260593,0.331396 4.760339,-6.413442 6.126987,-12.398809 0.413002,-1.122319 -0.357333,-1.191857 -1.352704,-1.330686 -0.99537,-0.138829 -1.553047,0.0667 -1.553047,0.0667 z"
         id="path25070" />
      <path
         style="fill:#f7f7f7;fill-opacity:1;stroke:#000000;stroke-width:0.264583px;stroke-linecap:round;stroke-linejoin:round;stroke-opacity:1"
         d="m 199.1196,197.64055 c 0,0 -8.49258,-6.63308 -12.11063,-7.09796 -0.3934,0.15157 4.72928,6.43638 10.04777,9.5033 0.95116,0.72489 1.24424,0.009 1.66973,-0.9014 0.4255,-0.91048 0.39312,-1.50394 0.39312,-1.50394 z"
         id="path25070-8" />
      <path
         style="fill:#f7f7f7;fill-opacity:1;stroke:#000000;stroke-width:0.264583px;stroke-linecap:butt;stroke-linejoin:miter;stroke-opacity:1"
         d="m 187.20319,151.53521 c 2.06918,1.79567 4.75774,4.51165 4.75774,4.51165 0,0 0.35933,0.77115 2.36409,0.59608 2.00476,-0.17507 3.47898,-0.20161 3.47898,-1.04281 0,-0.84121 1.41935,-2.4665 -0.79167,-3.43782 -2.21102,-0.97133 -7.42708,-1.81064 -9.08764,-1.67103 -1.66056,0.1396 -0.7215,1.04393 -0.7215,1.04393 z"
         id="path57253" />
    </g>
  </g>
</svg>
