<?xml version="1.0" encoding="UTF-8" standalone="no"?>
<!-- Created with Inkscape (http://www.inkscape.org/) -->

<svg
   width="348.21841mm"
   height="348.21841mm"
   viewBox="0 0 348.21841 348.21841"
   version="1.1"
   id="svg5"
   inkscape:version="1.1.1 (1:1.1+202109281949+c3084ef5ed)"
   sodipodi:docname="dibujo.svg"
   xmlns:inkscape="http://www.inkscape.org/namespaces/inkscape"
   xmlns:sodipodi="http://sodipodi.sourceforge.net/DTD/sodipodi-0.dtd"
   xmlns:xlink="http://www.w3.org/1999/xlink"
   xmlns="http://www.w3.org/2000/svg"
   xmlns:svg="http://www.w3.org/2000/svg">
  <sodipodi:namedview
     id="namedview7"
     pagecolor="#505050"
     bordercolor="#ffffff"
     borderopacity="1"
     inkscape:pageshadow="0"
     inkscape:pageopacity="0"
     inkscape:pagecheckerboard="1"
     inkscape:document-units="mm"
     showgrid="false"
     inkscape:zoom="0.35355339"
     inkscape:cx="-38.183766"
     inkscape:cy="736.80527"
     inkscape:window-width="1920"
     inkscape:window-height="1016"
     inkscape:window-x="0"
     inkscape:window-y="27"
     inkscape:window-maximized="1"
     inkscape:current-layer="layer1" />
  <defs
     id="defs2">
    <linearGradient
       inkscape:collect="always"
       id="linearGradient64187">
      <stop
         style="stop-color:#f5593f;stop-opacity:0.00392157"
         offset="0"
         id="stop64183" />
      <stop
         style="stop-color:#f5593f;stop-opacity:1"
         offset="1"
         id="stop64185" />
    </linearGradient>
    <radialGradient
       inkscape:collect="always"
       xlink:href="#linearGradient64187"
       id="radialGradient64189"
       cx="55.364658"
       cy="170.58643"
       fx="55.364658"
       fy="170.58643"
       r="174.10921"
       gradientUnits="userSpaceOnUse" />
  </defs>
  <g
     inkscape:label="Capa 1"
     inkscape:groupmode="layer"
     id="layer1"
     transform="translate(118.74455,3.5227852)">
    <circle
       style="fill:url(#radialGradient64189);fill-opacity:1;fill-rule:evenodd;stroke:#3e4a4b;stroke-width:1.38752;stroke-linecap:round;stroke-linejoin:round;stroke-miterlimit:4;stroke-dasharray:none;stroke-opacity:1"
       id="path4125"
       cx="55.364658"
       cy="170.58643"
       r="173.41545" />
    <path
       style="fill:#f5593f;fill-opacity:1;stroke:#000000;stroke-width:1.32292;stroke-linecap:round;stroke-linejoin:round;stroke-miterlimit:4;stroke-dasharray:none;stroke-opacity:1"
       d="m -4.9016731,155.90275 c -2.9347281,0 -3.1832822,-0.76915 -3.3781671,0.71738 -0.1948847,1.48652 1.3747826,2.76951 1.3747826,3.74591 0,0.9764 1.9005151,3.62676 0.8771925,4.47247 -1.0233229,0.84571 -0.3158612,3.37781 -0.435428,4.28952 -0.1195665,0.91171 2.614205,4.40944 0.8959255,4.91466 -1.7182796,0.50521 -2.9323908,0.13214 -3.3720712,2.34384 -0.4396803,2.21171 1.5992668,4.74184 2.45828,5.13359 0.8590134,0.39174 1.6814879,3.82808 0.4365844,4.65395 -1.2449037,0.82586 -3.0062632,3.72111 -3.2875254,5.31212 -0.2812618,1.59101 -2.9243682,4.47455 -4.1017842,4.4494 -1.177416,-0.0251 -5.268563,-0.26169 -5.868047,0.33779 -0.599484,0.59948 -3.591074,1.76987 -3.950388,2.67055 -0.359315,0.90068 -2.709413,4.31597 -2.404623,4.90434 0.30479,0.58837 -0.163322,0.63154 0.608194,2.62563 0.771516,1.99408 1.488844,2.99257 1.488844,2.99257 0,0 -3.226121,-2.15402 -4.305463,-1.33527 -1.079341,0.81874 -3.514095,3.86823 -2.233845,5.00411 1.28025,1.13588 5.280068,5.53363 6.634961,5.38016 1.354893,-0.15347 0.184007,-0.33658 0.184007,-0.33658 0,0 1.648274,2.913 2.626998,3.56883 0.978725,0.65584 5.371348,3.49768 7.336001,3.86521 1.964654,0.36752 2.936017,1.01894 2.936017,1.01894 0,0 3.7609621,5.22396 6.9337756,5.09069 3.17281348,-0.13327 5.4706272,2.0589 7.8196047,1.46461 2.3489774,-0.59429 4.1328771,-1.65236 4.1328771,-1.65236 0,0 0.7574568,-0.11808 1.249915,1.1198 0.4924576,1.23789 3.5327176,4.6235 4.3636136,4.53573 0.830895,-0.0878 2.985458,-0.91399 3.969218,0.47143 0.98376,1.38543 5.024935,1.12958 5.024935,1.12958 0,0 4.104531,1.71277 4.925946,2.77191 0.821415,1.05913 3.404465,3.01942 3.839628,3.10831 0.435163,0.0889 1.237469,3.65398 0.905743,4.81814 -0.331727,1.16417 0.766506,3.10888 2.504143,3.13548 1.737641,0.0266 5.467207,2.47672 5.467207,2.47672 l 2.646924,2.73207 c 0,0 0.422971,2.07606 0.58828,3.31865 0.165309,1.24259 2.126398,3.15344 4.127915,3.33083 2.001517,0.17741 0.668102,0.53613 0.668102,0.53613 0,0 -0.957329,1.57692 -0.530622,3.04766 0.426707,1.47073 2.353048,3.8487 5.006142,3.64646 2.653093,-0.20222 8.433641,0.081 8.433641,0.081 0,0 1.617554,-1.49214 3.161694,-2.01155 1.54414,-0.51943 5.178438,-1.48037 5.178438,-1.48037 0,0 2.297491,0.81741 2.881892,2.06656 0.584401,1.24912 3.394128,1.60319 3.691858,1.0442 0.297731,-0.55898 0.76036,-1.78797 2.170295,-1.78797 1.409938,0 3.137313,0.96292 3.236003,2.03094 0.09869,1.06802 1.219639,1.35149 2.449642,1.47505 1.23,0.12359 2.567823,-0.8831 2.840471,0.40053 0.272648,1.28362 0.651502,3.77648 0.0345,4.07635 -0.617001,0.29988 -7.822036,9.29183 -7.822036,9.29183 0,0 -2.137169,1.86949 -1.734219,3.02612 0.40295,1.15662 4.376541,0.23719 4.376541,0.23719 l 4.507201,0.27747 c 0,0 1.123987,1.07731 1.408827,2.52233 0.28484,1.44502 2.447163,4.06688 3.18326,3.63482 0.736098,-0.43209 2.373384,-6.81305 2.373384,-6.81305 l 8.162189,-35.11935 c 0,0 0.56153,-2.10501 -1.09036,-3.66243 -1.651895,-1.55743 -1.153968,-2.4562 -1.153968,-2.4562 0,0 -0.203932,-4.36076 -4.256696,-5.94474 -4.052765,-1.58399 -1.707716,-0.44278 -1.707716,-0.44278 0,0 0.150469,-7.46902 1.463932,-8.71399 1.313463,-1.24498 5.519668,-1.0882 5.519668,-1.0882 l 3.61201,0.42506 2.57472,0.10829 c 0,0 1.08606,-0.95702 0.46745,-2.69204 -0.61862,-1.73502 -1.59411,-5.65931 -1.59411,-5.65931 0,0 -1.42685,-0.68202 -4.20434,-0.57357 -2.777504,0.10845 -3.481557,-1.08795 -3.481557,-1.08795 l -0.341533,-2.76196 0.03204,-1.86277 c 0,0 -0.370951,-1.01601 3.07882,-1.28916 3.44976,-0.27315 9.41841,0.39324 9.41841,0.39324 l 9.97826,-0.35143 c 0,0 -0.11182,-3.10676 0.38548,-1.61949 0.49731,1.48727 2.07482,4.44308 2.65866,3.58272 0.58385,-0.86036 1.52547,-3.0323 1.52547,-3.0323 0,0 3.82298,-2.53802 3.98511,-3.2552 0.16213,-0.71718 2.68287,3.31264 2.68287,3.31264 l 1.8729,0.69389 -0.13897,1.11822 c 0,0 -0.88963,0.0888 -0.60879,0.6088 0.28084,0.52001 0.5627,2.52625 0.5627,2.52625 0,0 -0.34228,4.73052 0.69981,5.00389 1.04209,0.27338 5.16829,0.0157 5.16829,0.0157 0,0 0.9395,-1.0307 0.69056,-2.97143 -0.24894,-1.94072 -1.94964,-6.85219 -1.94964,-6.85219 l -1.43504,-2.23306 c 0,0 -1.24448,-7.1119 -2.45902,-8.81504 -1.21453,-1.70315 -3.90287,-4.17399 -3.90287,-4.17399 l -2.377,-1.83308 1.18102,-2.67941 c 0,0 3.62794,0.42249 4.78199,-2.917 1.15406,-3.33949 -1.30488,-3.82028 -1.30488,-3.82028 0,0 -0.55337,-1.76038 -0.25044,-2.96748 0.30294,-1.20711 -2.41774,-1.46793 -2.41774,-1.46793 l -1.61717,-17.27569 c 0,0 2.73697,-4.10256 2.98521,-5.44495 0.24824,-1.34239 2.20981,-4.60577 2.20981,-4.60577 0,0 -1.58493,-3.71174 -1.74733,-4.70728 -0.16239,-0.99554 -6.77308,0.30306 -6.77308,0.30306 l -2.36929,-0.40666 c 0,0 -3.58695,0.2687 -4.73821,0.76887 -1.15126,0.50017 -4.39319,-0.80021 -4.39319,-0.80021 0,0 -1.76166,-0.22641 -3.67172,0.0337 -1.91005,0.26013 -3.88039,0.29968 -4.32645,-0.2833 -0.44605,-0.58298 -7.994915,-10.66501 -7.994915,-10.66501 0,0 -1.641406,-0.5297 -3.575389,-0.24429 -1.93398,0.2854 -2.206942,-1.04596 -2.206942,-1.04596 0,0 -0.986026,-0.91799 -3.341219,-0.89667 -2.355194,0.0213 -8.000974,1.04315 -8.680268,0.46041 -0.679296,-0.58274 -6.123072,-1.80528 -7.907813,-0.89275 -1.784745,0.91254 -1.817802,-4.0719 -1.817802,-4.0719 0,0 -0.310377,-1.5214 -3.292885,-2.24671 -2.982507,-0.72531 0.005,-5.0517 0.005,-5.0517 0,0 1.490615,-5.54505 -0.362519,-7.34224 -1.853136,-1.79719 -3.07544,-7.83819 -3.07544,-7.83819 0,0 -1.637249,-3.6168 -3.297534,-4.5932 -1.660286,-0.97639 -1.812993,-1.91977 -1.812993,-1.91977 0,0 0.166465,-1.05749 1.645226,-2.8849 1.478759,-1.82741 1.35459,-6.219453 1.35459,-6.219453 0,0 0.420394,-2.37227 2.006711,-4.146187 1.586315,-1.773915 3.97064,-6.012273 3.97064,-6.012273 0,0 1.346652,-0.828119 2.263034,-0.895725 0.916381,-0.06761 2.619203,-3.428918 2.619203,-3.428918 0,0 -0.09653,-1.83361 1.184174,-2.728884 1.280708,-0.895276 2.349341,-1.742405 2.349341,-1.742405 0,0 1.842675,0.957556 2.383034,0.562798 0.540358,-0.394756 2.123408,-0.794052 2.123408,-0.794052 0,0 1.535853,-0.331928 1.695632,-0.772393 0.15978,-0.440462 0.708496,-1.37532 1.294067,-1.563484 0.58557,-0.188163 2.366698,-0.345246 2.366698,-1.115009 0,-0.769763 0.6995,-1.524558 0.08792,-2.50947 -0.611579,-0.984914 -0.293431,-1.091975 -0.984364,-1.864757 -0.690933,-0.772784 -0.176596,-1.851459 -1.196149,-2.029632 -1.019551,-0.178173 -0.778757,-0.306572 -1.897251,-0.848384 -1.118494,-0.541811 -1.004541,-0.879938 -2.168318,-1.314227 -1.163781,-0.43429 -2.304405,-0.831279 -3.112265,-0.294111 -0.807863,0.537168 -0.538575,0.370885 -1.13071,1.82613 -0.592138,1.455246 -0.45221,1.944852 -1.478582,1.944852 -1.026369,0 -0.817004,-0.372801 -1.822799,-0.372801 -1.005795,0 -2.227747,1.002353 -2.12906,1.777407 0.09869,0.775055 0.218475,1.427099 0.130652,1.92631 -0.08782,0.499211 -1.09016,1.501545 -1.09016,1.501545 0,0 -0.763035,0.781642 -1.344243,0.781642 -0.58121,0 -0.192886,-0.0971 -1.330245,-0.0971 -1.137359,0 -1.718088,0.1895 -2.268395,0.1895 -0.550309,0 -0.497483,-0.51059 -1.701474,0 -1.203992,0.510588 -2.126372,0.794874 -3.123793,1.792303 -0.997423,0.997432 0.497036,1.01047 -1.278117,1.694442 -1.775156,0.683975 -2.126266,0.858359 -3.346606,1.055735 -1.220338,0.197379 -1.854422,1.281068 -3.265514,0.818174 -1.411092,-0.462891 -1.220727,-0.515144 -1.964918,-0.708287 -0.744193,-0.193141 -2.640033,-0.48242 -3.08339,-0.643871 -0.443355,-0.161452 -2.273104,-0.161452 -2.273104,-0.161452 0,0 -1.90072,-0.420719 -1.700221,0.540703 0.200499,0.961421 0.01664,2.64928 -0.603255,2.732267 -0.619892,0.08299 -1.790634,1.370325 -3.210883,1.174776 -1.420246,-0.19555 -2.787946,-0.596831 -3.246588,-0.310697 -0.458642,0.286136 -3.872915,-0.474737 -4.163055,0.918022 -0.290142,1.392759 -2.741686,1.078495 -2.741686,1.078495 0,0 -1.460944,0.467746 -1.818283,1.426075 -0.357339,0.958331 -2.301103,2.334122 -1.71063,3.524422 0.590473,1.190299 -0.905093,1.097788 -0.905093,1.097788 0,0 -1.089075,0.971393 -1.196703,3.638523 -0.107628,2.66713 -0.327896,4.461746 -0.327896,4.461746 0,0 -0.673718,4.719507 -2.773611,4.675007 -2.099893,-0.0445 -2.812764,1.30032 -3.242072,1.67306 -0.429308,0.37275 -1.603267,1.70219 -1.603267,1.70219 0,0 -0.659695,0.73792 -1.220604,1.01221 -0.56091,0.27429 -0.9149,0.89658 -0.9149,0.89658 l -1.322089,1.35398 c 0,0 0.15454,-0.0531 -0.8542295,0.56215 -1.00877,0.6152 -0.3700727,0.27138 -1.542092,0.75633 -1.1720189,0.48494 -0.552115,0.58021 -1.9102847,0.77019 -1.35817,0.18997 -0.8935763,0.59805 -2.2856706,0.78802 -1.3920941,0.18998 -1.6880896,-0.29404 -1.6880896,0.28863 0,0.58267 -0.1046404,0.97311 0.3839266,2.03469 0.4885674,1.06159 1.3405813,1.25897 0.3124758,1.06159 -1.0281052,-0.19738 -1.2574565,-0.27452 -1.7278688,-0.36404 -0.47041231,-0.0895 -1.39853934,-1.31191 -1.39853934,-1.31191 l -1.45347376,-1.0285 -1.5759318,-0.0987 c 0,0 -0.7993084,0.91376 -0.8903115,1.36527 -0.091003,0.45152 0.00769,0.63835 -0.091003,1.17609 -0.098689,0.53774 0.087642,1.29564 0.1863312,1.6904 0.098689,0.39475 0.059223,1.17994 0.5426223,1.6409 0.4833991,0.46096 0.878156,1.83299 0.878156,1.83299 l 0.5587652,1.26259 0.4170922,1.56862 c 0,0 -0.5053246,0.83753 -1.4434507,0.86484 -0.938126,0.0273 -1.4872536,1.96753 -2.0547409,2.05551 -0.5674873,0.088 -3.0541624,-1.36373 -3.0541624,-1.36373 l -4.5708837,8.47598 c 0,0 2.274912,1.28425 2.534755,2.06391 0.259843,0.77965 -0.18014,0.61256 0.8396181,2.62049 1.0197568,2.00793 0.150889,1.62058 1.1960169,2.00793 1.0451277,0.38735 1.0998695,-0.51062 1.49147,1.17585 0.3916008,1.68647 1.6502499,0.41444 1.6502499,1.26805 0,0.85362 0.3206075,2.56492 -0.4664125,2.7623 -0.7870203,0.19738 -1.5189012,-0.87805 -0.944752,0.83475 0.5741493,1.7128 0.1717062,0.89563 0.5614636,2.5201 0.3897574,1.62447 1.6311073,0.57713 1.6843912,2.20022 0.053284,1.6231 0.053284,1.02474 0.053284,1.72056 0,0.69581 -0.6835003,1.91852 -0.6835003,1.91852 z"
       id="path321" />
    <path
       style="fill:#1a171b;fill-opacity:1;stroke:#000000;stroke-width:1.32292;stroke-linecap:round;stroke-linejoin:round;stroke-miterlimit:4;stroke-dasharray:none;stroke-opacity:1"
       d="m 84.296762,208.15078 0.385873,-1.81945 10.252657,-7.18561 c 0,0 2.35612,2.46774 1.804969,3.28993 -0.551151,0.82218 -1.703713,3.17908 -1.703713,3.17908 v 0 l -3.338041,4.03523 c 0,0 1.01247,2.36563 -9.69671,11.54961 -10.709176,9.18398 -13.249589,10.69056 -13.249589,10.69056 0,0 -16.579337,10.9395 -26.896131,1.99244 0,0 -4.742559,-2.68699 -4.8625,-9.49776 -0.119941,-6.81076 2.111302,-16.48502 2.111302,-16.48502 0,0 2.400975,-9.00491 7.738773,-18.24922 5.337799,-9.24431 14.766957,-18.3984 14.766957,-18.3984 0,0 7.065656,-6.6916 9.951003,0.47149 2.885346,7.16309 -0.51711,21.10746 -0.51711,21.10746 0,0 -1.516742,4.17292 -3.540166,6.49836 l -3.817411,-0.58082 c 0,0 0.072,-9.68404 2.106412,-11.79612 2.034413,-2.11208 0.164817,-7.79687 0.164817,-7.79687 0,0 -1.860781,-7.16581 -10.519164,2.23631 -8.658383,9.40213 -10.769021,18.3645 -10.769021,18.3645 0,0 -3.942565,13.51442 -0.35029,22.57301 3.592274,9.05858 10.408686,11.18367 16.283715,8.79822 5.875029,-2.38546 14.268639,-6.48626 22.407963,-13.91735 8.139323,-7.43108 4.262657,-8.76098 4.262657,-8.76098 0,0 -1.939055,-1.43742 -2.977252,-0.2986 z"
       id="path1331"
       sodipodi:nodetypes="cccscccsccscscscccscscssscc" />
    <path
       style="fill:#1a171b;fill-opacity:1;stroke:#000000;stroke-width:1.32292;stroke-linecap:round;stroke-linejoin:round;stroke-miterlimit:4;stroke-dasharray:none;stroke-opacity:1"
       d="m 50.907487,139.54866 c 6.81422,-0.58247 12.386747,-6.79238 12.386747,-6.79238 l 2.584352,0.33942 c 0,0.47047 -2.268014,5.1361 -7.880201,9.44658 -4.994297,3.8359 -8.215446,3.54324 -8.215446,3.54324 0,0 -7.144544,0.10316 -8.349054,0.32854 -1.20451,0.22538 -1.076372,1.0175 -1.076372,1.0175 l -1.456172,8.37316 c -1.130052,6.49793 -2.87455,35.49824 -2.955463,37.63901 -0.06081,1.60882 -0.763278,5.02652 -0.763278,5.02652 0,0 -0.341322,2.07681 -0.645751,4.17481 0.637143,0.86055 1.562467,1.80878 0.571423,2.20437 -0.991047,0.3956 -2.345654,2.34534 -3.291689,3.31753 -0.665835,0.68425 -2.464157,0.52567 -2.464157,0.52567 -0.01399,-0.002 -3.0461,-0.10617 -3.0461,-0.10617 -1.015311,-0.16707 0.02538,-3.27127 0.02538,-3.27127 0,0 0.624493,-2.7134 1.421847,-3.79488 0.797351,-1.08147 0.914804,-3.5134 0.914804,-3.5134 0,0 0.804757,-44.81506 0.975355,-46.59458 0.170598,-1.77953 -0.786447,-1.92439 -0.786447,-1.92439 0,0 -1.06138,0.55997 -2.819574,0.99399 l -6.686428,1.65058 -1.828492,1.73818 c -0.977575,0.92929 -6.320425,8.96994 -7.343729,9.9437 -1.0233048,0.97376 -2.7191829,0.2377 -2.7191829,0.2377 l -4.2332349,-4.324 c 0,0 -0.3220208,-1.13846 0.7543909,-2.21845 0,0 6.6953109,-7.63049 9.3254349,-8.16848 2.630123,-0.53798 24.304029,-7.25368 28.761963,-7.72293 2.568133,-0.27033 4.988291,-1.09944 4.988291,-1.09944 0,0 2.130904,-0.73125 3.850783,-0.97013 z"
       id="path4342"
       sodipodi:nodetypes="cccscscssccsscscscscscsscccsscc" />
    <g
       id="g60115"
       style="fill:#1a171b;fill-opacity:1">
      <path
         style="fill:#1a171b;fill-opacity:1;stroke:#000000;stroke-width:0.264583;stroke-linecap:round;stroke-linejoin:round;stroke-miterlimit:4;stroke-dasharray:none;stroke-opacity:1"
         d="m -83.531931,198.03161 c 0,0 15.14534,0.0222 17.24837,1.37449 2.10303,1.35228 5.180282,0.69795 5.788149,-1.14351 0.607864,-1.84146 0.319217,-6.47779 -2.27257,-8.14504 -2.591784,-1.66724 -9.348218,-1.7244 -9.348218,-1.7244 0,0 -10.889602,0.13904 -13.630683,-1.03526 -2.74108,-1.1743 -2.656496,-2.95287 -2.656496,-2.95287 0,0 0.459788,-4.0668 -2.607802,-6.32184 -3.067587,-2.25504 -3.826896,-2.87564 -3.826896,-2.87564 0,0 -1.09443,-0.57372 -2.586397,0.16198 -1.491964,0.73571 -2.818446,1.42116 -2.734836,2.9772 0.0836,1.55604 -0.11444,2.72249 0.977524,3.38679 1.091959,0.66431 1.45937,2.61478 1.45937,2.61478 0,0 2.442141,12.78017 3.616849,15.53988 1.174705,2.75971 1.373293,3.73383 1.373293,3.73383 0,0 0.901721,2.52298 3.60858,4.16147 2.706863,1.63849 4.889807,3.14935 7.595839,-0.95368 2.706031,-4.10304 1.796841,-4.96662 1.102373,-5.6328 -0.694471,-0.66618 -3.085269,-2.49481 -3.106449,-3.16538 z"
         id="path9032" />
      <path
         style="fill:#1a171b;fill-opacity:1;stroke:#000000;stroke-width:0.264583px;stroke-linecap:round;stroke-linejoin:round;stroke-opacity:1"
         d="m -75.053681,162.28704 c 0,0 -2.782675,-2.07813 -4.677146,-1.94652 -0.862145,0.0599 -5.921991,1.16646 -5.921991,1.16646 0,0 -1.714801,0.41331 -2.216512,2.54779 -0.618238,2.63024 -0.970811,5.42288 -0.214612,6.7881 0,0 4.543649,6.40096 6.773696,7.17141 l 4.0987,1.41605 c 0.494687,0.17091 11.093569,2.68083 14.091293,1.1244 2.997724,-1.55642 2.443088,-4.20833 1.956562,-5.77609 -0.486527,-1.56777 -2.324441,-11.45213 -4.488655,-13.42984 -2.45157,-2.2403 -8.180939,-3.09858 -8.180939,-3.09858 0,0 -0.01731,1.71164 -1.220396,4.03682 z"
         id="path14288"
         sodipodi:nodetypes="cscssssssscc" />
      <path
         style="fill:#1a171b;fill-opacity:1;stroke:#000000;stroke-width:0.264583px;stroke-linecap:round;stroke-linejoin:round;stroke-opacity:1"
         d="m -84.356606,144.92806 c 0,0 0.340167,0.14863 0.0013,-0.90582 -0.338965,-1.05444 -1.072433,-7.50141 1.70116,-7.34712 0,0 0.643138,-0.73855 -0.364579,-2.77415 -1.007717,-2.03561 -1.128412,-4.9859 -1.082408,-5.82209 0.04601,-0.8362 0.649177,-1.34039 0.649177,-1.34039 l 0.746728,-0.77512 c 0.286362,-0.29725 1.850305,-2.31678 3.064882,-2.07013 1.214577,0.24665 1.567648,0.1727 1.713613,-1.04971 0.294982,-2.47038 2.039354,-3.68284 2.039354,-3.68284 0,0 0.688746,-0.78089 2.661557,-1.63969 0.250218,-0.10892 -0.485471,-1.84973 -0.485471,-1.84973 0,0 -1.159279,-3.23646 0.656297,-5.18384 1.815577,-1.94738 5.57657,-2.30508 7.902181,-1.59616 2.325611,0.70892 3.551296,0.68493 3.13957,-0.43923 -0.411727,-1.12417 -0.06418,-3.1261 1.261569,-3.52225 0,0 0.647068,-0.019 -0.555843,-1.6128 -1.202911,-1.59381 -3.636034,-5.450426 -3.925447,-6.721997 -0.289413,-1.271571 0.978524,-6.930687 1.634153,-8.540678 0.655629,-1.609991 2.185916,-5.396273 5.775473,-6.389275 0.526343,0.0011 0.312613,-1.974243 0.312613,-1.974243 0,0 -0.963681,-4.884574 1.977714,-5.706572 0,0 1.406431,-0.181322 -0.194274,-2.771014 -1.600705,-2.589693 -2.338444,-4.530201 -1.932182,-8.453052 0.406261,-3.922851 0.910831,-6.638984 3.274703,-8.441664 2.363872,-1.80268 7.072075,-1.477692 8.471474,1.630274 1.3994,3.107966 -0.834103,5.989577 -1.878618,6.754999 -0.775041,0.567952 -0.63699,1.960848 -0.63699,1.960848 0,0 -0.31886,2.757933 1.598476,3.241451 0.84544,0.213205 1.725267,-0.540555 1.725267,-0.540555 0,0 0.819589,-1.035316 1.576885,-1.382163 1.407156,-0.644488 2.127687,-0.667531 2.756048,-0.630965 0.628361,0.03657 0.41573,-0.978084 0.41573,-0.978084 0,0 0.459511,-4.381228 4.17306,-7.605964 3.713549,-3.224737 6.170341,-3.437 7.796146,-2.591434 1.625805,0.845565 1.783683,-0.06052 1.783683,-0.06052 0,0 2.745648,-6.067252 4.656487,-7.585447 1.91084,-1.518194 4.429042,-0.492732 4.429042,-0.492732 0,0 2.691974,-4.279332 5.045247,-3.884054 2.353272,0.395278 2.7196341,-0.12958 2.7196341,-0.12958 0,0 0.8857637,-0.07936 0.9043703,-0.940744 0.018607,-0.861383 2.2533663,-6.000195 5.0543243,-6.093495 2.80095787,-0.0933 5.1989668,-0.0766 5.5503184,1.652476 0.1802116,1.303411 0.8133523,0.156813 0.8133523,0.156813 0,0 0.8062945,-1.198717 1.8628913,-1.282076 1.1439937,-0.09025 4.0012407,0.145461 4.8864059,0.904718 1.2838264,1.40714 1.6897194,-0.439566 1.6897194,-0.439566 0,0 0.935151,-3.316705 4.872156,-3.449643 3.937005,-0.132939 5.123733,3.610584 5.123733,3.610584 l 1.230327,2.640939 c 0,0 0.277076,1.296162 0.930856,1.34493 0.65378,0.04877 1.124198,-1.5942 1.792579,-1.998981 0.668381,-0.404782 2.182468,-0.603184 2.837437,-0.09002 0.278273,0.218026 1.301114,0.152461 1.301114,0.152461 0,0 0.649335,-0.306095 0.722232,-1.463182 0.0729,-1.157087 1.818067,-11.048082 7.154733,-13.135657 5.336666,-2.087575 12.097358,-1.46184 12.097358,-1.46184 0,0 1.180577,-0.05855 1.203436,2.054981 0.02286,2.113531 -0.372278,3.495904 -0.472921,3.98005 -0.08027,0.386138 -0.129111,1.631678 -0.129111,1.631678 0,0 0.509096,2.2669 0.61688,3.925047 0.118791,1.827469 0.293309,1.790681 0.293309,1.790681 0,0 0.590605,0.378669 1.657689,-0.945883 1.067083,-1.324553 2.424866,-1.941648 4.091661,-1.59364 l 1.022029,0.03942 c 0,0 -0.66875,-3.370903 -0.174225,-4.40427 0.494524,-1.033367 4.893038,-5.184019 6.038696,-5.703335 1.145657,-0.519315 4.190426,-1.511759 5.516909,-0.748385 1.326483,0.763375 3.210454,2.004267 3.519617,3.496185 0.39449,1.903681 2.814011,0.711811 2.814011,0.711811 0,0 1.835065,-0.07151 2.330186,0.533346 0.495121,0.604856 2.461974,2.939329 2.90712,3.083801 0.445147,0.144473 0.642246,0.08063 1.03656,-0.258184 0,0 2.317881,-1.709804 3.791744,-1.573513 1.473864,0.136291 4.039811,1.782156 4.494472,3.78018 0.454661,1.998023 0.177784,5.377659 0.177784,5.377659 0,0 -0.077,1.267437 0.641709,1.632328 0.718714,0.364891 1.268462,0.166998 1.799305,-0.342912 0.530843,-0.50991 1.492548,-0.394766 1.74053,-0.187496 0.247982,0.20727 1.21179,0.634536 1.893706,-0.329337 0.681916,-0.963873 4.414212,-5.196031 7.604532,-5.698433 3.19032,-0.502403 8.55349,0.785546 10.50294,1.785804 1.94945,1.000258 3.28655,2.345721 3.30399,3.509686 0.0174,1.163964 0.42468,1.417453 0.42468,1.417453 0,0 0.4349,0.394998 0.85137,-0.24114 0.41647,-0.636139 10.11257,-1.058216 11.50917,0.99685 1.3966,2.055067 1.62035,5.647334 -0.28488,6.100416 -1.73483,0.412561 -2.6406,0.489632 -3.17265,0.439147 -0.55235,-0.05241 -2.1337,0.142204 -1.89886,1.390529 0.23483,1.248324 2.0515,9.279271 -2.15186,11.296768 -4.20335,2.017498 -11.78501,1.855318 -11.78501,1.855318 l -0.10658,0.02203 c 0,0 -4.20354,0.01801 -4.84415,-1.820434 -0.7022,-2.015207 -0.28212,-3.87257 -0.28212,-3.87257 0,0 0.33012,-1.319119 2.95909,-1.707932 2.29382,-0.339246 3.39824,-0.111647 4.11183,-0.11962 0.65683,-0.0073 2.93139,-0.700049 2.64957,-1.638193 -0.28182,-0.938144 -1.48695,-4.187227 -1.27793,-5.414993 0.20902,-1.227767 -0.88869,-0.610047 -0.88869,-0.610047 0,0 -5.99842,7.607463 -15.515975,9.181077 v 0 c -3.299782,0.537483 -6.365071,-2.000289 -5.850937,-4.962732 0.02678,-0.577308 -1.062421,-1.232154 -1.830862,0.386393 -0.768441,1.618547 -5.34292,0.526516 -7.713928,-1.05408 -2.371009,-1.580597 -1.860128,-5.531464 -1.860128,-5.531464 0,0 0.07545,-1.205153 -0.78742,-1.956481 -0.862875,-0.751327 -0.984258,-0.04022 -0.984258,-0.04022 0,0 -0.679151,1.933887 -2.174521,4.452149 -1.495371,2.518261 -5.01697,2.904091 -5.01697,2.904091 0,0 -2.311755,0.532415 -4.270243,-2.26404 -1.958488,-2.796456 -1.606278,-1.62032 -1.606278,-1.62032 0,0 0.0062,2.17933 -2.035942,3.483448 -2.042131,1.304119 -5.166277,4.245851 -7.689654,-0.23802 -2.523376,-4.48387 -3.039883,-2.371857 -3.039883,-2.371857 0,0 -0.332573,1.64074 -3.214138,2.648906 -2.881565,1.008166 -6.35262,-3.581892 -7.194268,-5.87239 0,0 -2.727207,3.796727 -3.237494,4.6567 -0.469189,0.790712 -3.10944,4.027324 -5.5942,4.30671 -2.484759,0.279385 -5.094368,-3.35512 -5.094368,-3.35512 0,0 -0.997167,1.307236 -1.158972,1.719109 -0.446657,1.136961 -0.513704,1.897798 -1.438193,2.100747 -0.924488,0.202949 -4.974066,1.569927 -6.670655,-0.459055 -1.696589,-2.028981 -3.512733,-4.774738 -3.512733,-4.774738 0,0 -0.739193,-1.070398 -0.619867,1.695252 0.119325,2.765649 -0.293014,7.845662 -3.417592,9.221502 -3.1245767,1.37584 -4.0258449,-0.226391 -4.8533492,-0.290806 -0.8275043,-0.06442 -1.815752,0.09889 -2.0918097,1.389501 -0.2760576,1.29061 -0.343027,3.846584 -2.3192063,5.571512 -1.97617929,1.724928 -5.2529737,-0.190104 -6.0021753,-0.672881 -0.7492016,-0.482777 -2.2375915,-1.009093 -2.4157121,-3.928397 -0.1494075,-2.448711 -0.381845,-3.225268 -0.6094506,-4.184582 -0.152515,-0.642822 -0.1964623,-1.15905 -0.3815348,-2.5757 -0.2840435,-2.17423 0.028541,-2.915031 -1.4907505,-3.826958 -0.7305847,-0.43852 -1.0578284,0.301064 -1.0578284,0.301064 l -0.8898091,1.220402 c -0.9787,1.342318 -1.961544,1.759562 -1.943371,3.0015 0.01817,1.241937 3.6605731,8.957362 3.3712577,11.726958 -0.2893154,2.769597 -2.2345487,5.069763 -4.6480807,5.79525 -2.413531,0.725487 -4.157474,-1.571328 -4.706779,-3.84868 -0.549305,-2.277353 -1.651868,-6.816142 -3.445343,-7.191487 -1.793475,-0.375345 -2.135315,0.159552 -1.754907,1.517627 0.380407,1.358076 2.543941,7.904281 1.361368,12.927549 -1.182573,5.023268 -1.317783,7.988376 -3.435529,8.273834 -2.117746,0.285458 -2.828963,0.296537 -3.958981,0.0066 -1.130018,-0.289975 -4.634551,-3.619834 -4.634551,-3.619834 l -3.91741,-4.541992 c 0,0 -1.268755,-1.854748 -2.231933,-0.758653 -0.963178,1.096095 -1.295703,2.916701 -0.726111,4.198013 0.569591,1.281311 12.1652,15.136852 13.821987,19.253485 1.656786,4.116631 3.592323,9.942601 3.002753,14.191531 -0.589569,4.24893 -1.457377,6.30831 -2.925801,6.62513 -1.468424,0.31682 -5.238494,-0.10707 -5.278446,-2.44161 -0.03995,-2.33453 0.527152,-7.24024 -1.293059,-10.84563 -1.82021,-3.60539 -3.984276,-7.423679 -4.922098,-8.238149 -0.937823,-0.814471 -9.847307,-13.937866 -9.847307,-13.937866 0,0 -0.279617,-0.701424 -1.208365,-0.615322 -0.928748,0.0861 -2.618353,0.281215 -1.96211,1.206071 0.656242,0.924856 3.010529,3.495602 4.20576,6.157837 1.195231,2.662235 3.412874,8.599041 3.380431,13.327669 -0.03244,4.72862 -0.889432,6.47191 -2.568799,7.01724 -1.679368,0.54533 -3.922404,0.0424 -3.922404,0.0424 0,0 -2.481224,-0.37035 -1.237702,0.96723 1.243521,1.33757 2.056255,3.24855 0.759333,5.68808 -1.296923,2.43953 -2.704308,3.94116 -5.169021,3.52473 -2.464714,-0.41642 -4.726694,-0.14785 -4.658727,0.15086 0.06797,0.29871 1.687153,1.78069 3.12592,2.80113 1.438768,1.02044 2.910481,3.69584 2.69917,5.50994 -0.211311,1.8141 -0.115597,4.6627 -2.900635,5.34007 -2.785038,0.67736 -3.253697,0.1782 -3.253697,0.1782 0,0 2.504417,1.37996 3.4369,3.01005 0.932484,1.63009 3.711436,6.36975 -0.588901,8.13932 -4.300337,1.76958 -5.888145,1.63097 -7.705141,-0.20045 -1.816996,-1.83141 -4.645713,-4.2883 -7.442587,-4.71758 -2.796874,-0.42927 -2.28362,2.17489 -2.28362,2.17489 0,0 0.281696,2.93905 3.407285,4.79821 3.125589,1.85916 9.020359,2.95185 9.396534,4.66924 0.376174,1.71738 1.779511,5.53386 0.701492,7.01357 -1.078019,1.47971 -1.367593,1.51622 -1.912968,1.40093 -0.545375,-0.11529 -1.058193,0.12927 -1.10711,0.54153 l -8.377127,-3.00106 c 0,0 -1.727442,-1.26184 -3.510473,0.20376 -1.783032,1.46559 -4.162595,0.88881 -4.84888,0.24323 -0.686285,-0.64558 -2.309822,-2.08436 -3.352759,-4.69107 -1.042937,-2.60672 -1.775506,-4.495 -1.225964,-6.66748 0.549541,-2.17248 1.086926,-2.53609 2.414755,-2.4106 z"
         id="path23525"
         sodipodi:nodetypes="cccsscssscscssscssscccssssscscsscsscscscssccsccsccssscsscsscscsccsssscsscsscssssssccssssssccscssssccccsscscscscsscscsscssscsssssssssscssssssssscccsssssssscssssscssssssscsssscssssccssssc" />
      <path
         style="fill:#1a171b;fill-opacity:1;stroke:#000000;stroke-width:0.264583px;stroke-linecap:butt;stroke-linejoin:miter;stroke-opacity:1"
         d="m 143.23132,52.814913 c -4.10169,-0.700583 -4.53165,1.258937 -4.31584,4.13055 0.21581,2.871613 2.93816,5.664745 6.40763,8.309486 3.46946,2.64474 5.58542,5.548365 3.65745,6.629971 -1.92797,1.081606 -5.31323,-0.09978 -6.57138,-0.86424 -1.25816,-0.764461 -3.30089,-1.47175 -2.92046,-3.548589 0.38043,-2.076842 -0.18772,-2.708336 -2.17487,-4.171178 -1.98714,-1.462841 -6.53062,-1.792914 -8.16624,0.383903 -1.63563,2.176817 -1.87751,5.964817 2.8763,9.818537 4.75381,3.853719 10.86817,6.108599 10.86817,6.108599 0,0 9.49385,3.349212 13.27049,-0.293002 3.77663,-3.642217 3.17161,-7.617926 2.62051,-8.667692 -0.5511,-1.049766 -1.10269,-3.324455 -1.10269,-3.324455 0,0 6.1957,0.321842 8.76918,-1.758813 2.57348,-2.080651 3.91475,-7.012593 1.42962,-9.682704 -2.48512,-2.670112 -24.64787,-3.070373 -24.64787,-3.070373 z"
         id="path52884" />
      <path
         style="fill:#1a171b;fill-opacity:1;stroke:#000000;stroke-width:0.264583px;stroke-linecap:round;stroke-linejoin:round;stroke-opacity:1"
         d="m 174.39762,79.118186 -8.62582,-4.626853 c 0,0 -5.0786,-1.18514 -5.61489,2.291408 -0.5363,3.476551 0.61472,4.165738 0.61472,4.165738 0,0 -6.06974,1.262123 -8.80059,4.154442 -2.73086,2.892317 -3.88571,7.491767 -1.01238,8.986779 2.87333,1.495015 9.70153,2.217259 9.70153,2.217259 0,0 0.4634,0.04145 -0.19743,0.703593 -0.66082,0.662141 -1.63368,4.385838 0.47267,6.248508 2.10635,1.86267 7.23095,2.85927 10.0608,2.22913 0,0 1.05636,-0.91141 1.13533,-2.14578 0.079,-1.23437 5.54617,-4.535863 8.09939,-5.67582 2.55322,-1.139958 2.97608,-2.581293 2.55706,-3.811541 -0.41902,-1.230248 -2.56717,-4.27431 -4.91831,-4.225983 -2.35114,0.04833 -9.94304,-1.219773 -9.94304,-1.219773 0,0 -0.57117,-0.06741 -0.16185,-0.498224 0.40932,-0.430816 7.29598,-2.068067 7.88715,-4.715855 0.59116,-2.647787 -1.25434,-4.077028 -1.25434,-4.077028 z"
         id="path53306" />
      <path
         style="fill:#1a171b;fill-opacity:1;stroke:#000000;stroke-width:0.264583px;stroke-linecap:round;stroke-linejoin:round;stroke-opacity:1"
         d="m 163.73836,108.37318 c -1.7299,1.74197 -0.7464,4.14598 0.0506,4.92356 0.79705,0.77758 9.76108,5.95276 11.60675,5.98165 1.84567,0.0289 5.26367,-0.31916 6.38439,-1.43832 1.12071,-1.11916 3.42073,-5.95366 3.42073,-5.95366 0,0 0.45183,-0.97771 1.22681,-0.53403 0.77498,0.44367 1.2204,1.09855 4.01921,1.16388 2.79881,0.0653 3.05525,-1.15585 3.24419,-2.11728 0.18894,-0.96143 1.02117,-4.05586 -2.20794,-6.20487 -3.2291,-2.14901 -6.87241,-4.08057 -10.31364,-3.47208 -3.44123,0.60849 -5.0419,4.38516 -5.29243,5.38767 -0.25053,1.00252 -0.44368,3.88049 -1.98069,3.46549 -1.53702,-0.415 -2.09214,-2.08386 -4.13088,-2.58883 -2.03874,-0.50496 -4.68173,0.33494 -4.68173,0.33494 -0.51403,0.16518 -1.34541,1.05188 -1.34541,1.05188 z"
         id="path55060"
         sodipodi:nodetypes="cssscssssssssscc" />
      <path
         style="fill:#1a171b;fill-opacity:1;stroke:#000000;stroke-width:0.264583px;stroke-linecap:round;stroke-linejoin:round;stroke-opacity:1"
         d="m 177.72052,206.60285 c -2.43591,-0.3055 -3.73845,1.9417 -3.86723,3.04771 -0.12874,1.10605 1.06024,11.36452 2.16483,12.84344 1.10458,1.47893 3.65763,3.97245 5.22831,4.1761 1.57069,0.20364 6.80332,-0.92861 6.80332,-0.92861 0,0 1.0501,-0.23953 1.17223,0.64508 0.12215,0.8846 -0.12425,1.63729 1.53374,3.89311 1.65801,2.25579 2.78147,1.71286 3.65809,1.27514 0.87661,-0.43772 3.83496,-1.66911 3.56383,-5.53846 -0.27112,-3.86934 -0.96744,-7.93379 -3.55134,-10.28662 -2.5839,-2.35282 -6.55182,-1.31302 -7.49857,-0.89902 -0.94677,0.41406 -3.78355,2.01964 -4.39389,0.54923 -0.61035,-1.47041 -0.41939,-2.80722 -0.82619,-4.78627 -0.42289,-2.05734 -2.33247,-3.56822 -2.33247,-3.56822 -0.44479,-0.30607 -1.65469,-0.42262 -1.65469,-0.42262 z"
         id="path55060-0"
         sodipodi:nodetypes="cssscssssssssscc" />
      <path
         style="fill:#1a171b;fill-opacity:1;stroke:#000000;stroke-width:0.264583px;stroke-linecap:butt;stroke-linejoin:miter;stroke-opacity:1"
         d="m 174.74149,134.97036 c -2.12658,-5.63072 0.46685,-7.00263 1.3088,-7.25917 0.84195,-0.25654 3.43577,-0.3367 5.04019,0.9727 1.60441,1.30939 3.27598,3.70014 4.94213,3.35039 1.66615,-0.34975 9.30156,-1.84907 9.30156,-1.84907 0,0 0.55883,0.005 0.89945,-0.67765 0.34063,-0.68251 1.88732,-3.81393 3.97781,-4.33934 2.09049,-0.52541 4.50975,0.90852 4.97419,1.51083 0.46443,0.6023 6.56427,12.64275 6.56427,12.64275 0,0 1.05636,2.91142 -2.35167,4.63176 -3.40803,1.72034 -6.38673,-3.91386 -6.38673,-3.91386 0,0 -0.55543,-0.74372 -1.74215,-0.77535 -1.18671,-0.0316 -11.73096,0.0494 -12.29687,0.36699 -0.56592,0.31758 -0.89468,0.33409 -0.93545,0.88987 -0.0408,0.55579 -0.36846,1.80706 0.0758,2.38888 0.44429,0.58182 5.77572,0.40793 7.84352,1.5054 2.06779,1.09747 8.13883,4.48993 8.47708,6.4595 0.33825,1.96957 0.48733,2.58464 0.48733,2.58464 0,0 0.34054,1.21124 0.89483,0.83308 0.5543,-0.37817 2.48798,-2.52267 3.74364,-2.47374 1.25565,0.0489 2.33052,-0.0436 4.09523,1.36781 1.76472,1.41143 3.03269,4.06672 3.03269,4.06672 0,0 1.90325,3.84491 0.26944,6.38645 -1.63382,2.54155 -2.17737,2.17793 -3.45362,2.12339 -1.27624,-0.0545 -3.11101,-0.9162 -3.91007,-1.18096 -0.79907,-0.26476 -20.56678,-2.52957 -22.91748,-2.54724 -2.35069,-0.0177 -8.79291,2.31005 -8.96841,3.91718 -0.1755,1.60713 1.27202,2.0827 1.27202,2.0827 0,0 -0.35016,2.51139 -3.68198,3.4595 -3.33182,0.94812 -6.41952,-0.98582 -6.99448,-2.90381 -0.57497,-1.91798 0.0261,-5.47487 1.69995,-6.85824 1.67384,-1.38338 7.81467,-5.8864 9.34699,-6.18747 1.53233,-0.30107 1.96589,-1.0943 1.34427,-1.54975 -0.62163,-0.45544 -3.78804,-3.36304 -3.78804,-3.36304 0,0 -1.05088,-0.52995 -0.15962,-2.58137 0.89127,-2.05142 3.69215,-3.59917 3.69215,-3.59917 0,0 1.23226,-0.55049 0.69315,-1.08232 -0.53912,-0.53183 -4.01768,-3.70231 -6.38994,-8.39899 z"
         id="path56642" />
      <path
         style="fill:#1a171b;fill-opacity:1;stroke:#000000;stroke-width:0.264583px;stroke-linecap:butt;stroke-linejoin:miter;stroke-opacity:1"
         d="m 178.97902,168.03502 c 0.95806,-2.99631 3.58898,-3.53899 6.69606,-3.76765 3.10708,-0.22866 12.60885,1.95946 15.01274,3.77554 2.40389,1.81609 5.30999,6.34639 4.96833,9.31143 -0.34167,2.96504 -0.76155,5.87059 -4.21126,6.31167 -3.4497,0.44109 -6.39833,-0.0362 -6.93944,-0.36739 -0.5411,-0.33119 -1.27183,-0.21531 -1.81247,0.30511 -0.54065,0.52041 -1.01514,1.29439 -0.25151,1.88187 0.76364,0.58748 7.44908,3.98278 9.47097,7.01042 2.02189,3.02765 3.47422,11.12206 1.62659,15.50697 -1.84762,4.38492 -6.23152,0.67246 -6.23152,0.67246 0,0 -0.40422,-1.14755 -2.08446,-1.3403 -1.68024,-0.19273 -4.83832,-0.62169 -4.83832,-0.62169 0,0 -1.62297,-0.29568 -1.25446,0.73779 0.36851,1.03347 2.63813,2.57782 1.8333,4.36185 -0.80484,1.78404 -1.26705,2.09534 -1.26705,2.09534 0,0 -2.89262,2.0615 -4.47521,0.60802 -1.58258,-1.45348 -5.49536,-7.13955 -6.20984,-8.30917 -0.71448,-1.16962 -2.09414,-3.36805 -1.7745,-5.13631 0.31964,-1.76826 1.00592,-2.03572 2.72006,-2.93416 1.71414,-0.89844 3.68302,-1.79785 3.68302,-1.79785 0,0 0.94243,-0.45905 0.20503,-1.41108 -0.7374,-0.95202 -4.76065,-4.96103 -5.07594,-7.49822 -0.3153,-2.53719 0.47669,-3.76933 0.79205,-4.17348 0.31536,-0.40415 1.77169,-0.97897 2.1039,-0.9459 0.3322,0.0331 1.33364,-0.14959 1.45805,-0.84143 0.1244,-0.69185 -4.65232,-11.90273 -4.14412,-13.43384 0.0825,-0.24871 0,0 0,0 z"
         id="path57255"
         sodipodi:nodetypes="cssssssssscscsscsssscssssssc" />
    </g>
    <g
       id="g60138"
       style="fill:#f7f7f7;fill-opacity:1">
      <path
         style="fill:#f7f7f7;fill-opacity:1;stroke:#000000;stroke-width:0.264583;stroke-linecap:round;stroke-linejoin:round;stroke-miterlimit:4;stroke-dasharray:none;stroke-opacity:1"
         d="m -88.987848,194.65694 c 0,0 20.302751,0.64392 22.288915,1.44985 1.986166,0.80592 2.479257,0.8688 2.479257,0.8688 0,0 1.623956,0.37074 1.21984,-1.93791 -0.404114,-2.30866 -1.42576,-2.98795 -2.50489,-3.19561 -1.079129,-0.20766 -10.400953,-1.30836 -11.280862,-0.75884 -0.879909,0.54952 -9.886746,-0.53355 -12.166423,-1.21046 -2.279676,-0.67691 -2.202764,-1.8951 -2.202764,-1.8951 l -0.04924,-1.8238 c -0.01633,-0.60472 0.496115,-2.955 -0.660468,-4.33406 -1.156584,-1.37906 -2.726648,-2.78688 -2.726648,-2.78688 -0.529453,-0.52613 -1.881857,-1.01819 -2.322965,-0.15429 0,0 -0.399081,0.52728 0.222303,0.94956 0,0 1.466819,1.86814 1.750102,2.89485 0.372751,1.35098 0.611708,3.71439 0.611708,3.71439 0,0 0.299959,1.03032 0.648285,3.07067 0.403728,2.36487 3.965797,13.46449 3.965797,13.46449 0,0 0.60822,1.29804 1.947998,2.17491 1.328216,0.8693 2.272093,1.66374 3.484788,0.36356 1.212694,-1.30017 1.850515,-2.06445 0.283138,-3.3882 -1.567377,-1.32375 -2.51645,-2.17668 -2.51645,-2.17668 0,0 -1.608827,-0.86512 -2.301857,-3.12482 -0.69303,-2.25969 -0.289575,-2.22927 -0.289575,-2.22927 z"
         id="path9227"
         sodipodi:nodetypes="cscsssscssscsscscssscscc" />
      <path
         style="fill:#f7f7f7;fill-opacity:1;stroke:#000000;stroke-width:0.264583px;stroke-linecap:round;stroke-linejoin:round;stroke-opacity:1"
         d="m -72.730383,172.7556 3.315958,0.19758 c 0,0 1.503485,0.10277 1.05063,-1.36069 -0.594857,-1.92236 -1.562687,-7.20032 -3.031614,-8.6355 -1.468927,-1.43517 -0.26303,-2.19309 -0.26303,-2.19309 0,0 1.636784,-1.39534 2.408877,-0.0388 0.772097,1.35651 3.786175,9.09889 4.171765,10.74709 0.385593,1.6482 1.424242,3.83125 1.44235,4.7827 0.01812,0.95145 -1.06875,1.99055 -2.383748,2.0054 -1.314998,0.0148 -7.860482,-0.83367 -10.649757,-1.68899 -2.231778,-0.68436 -3.54462,-1.29986 -3.54462,-1.29986 0,0 -1.56415,-0.67669 -3.615785,-3.45502 -2.74809,-3.72147 -1.209445,-6.70592 -1.209445,-6.70592 0,0 0.585732,-1.27324 3.076019,-1.312 2.490288,-0.0388 2.983855,-0.0184 2.983855,-0.0184 0,0 1.429252,-0.11685 2.255347,1.35536 l 1.000302,1.55431 c 0.531821,0.82637 1.39751,3.52355 1.39751,3.52355 0,0 0.49265,2.36255 1.595386,2.54228 z"
         id="path17029"
         sodipodi:nodetypes="ccsscssscscsccccscc" />
      <path
         style="fill:#f7f7f7;fill-opacity:1;stroke:#000000;stroke-width:0.264583px;stroke-linecap:round;stroke-linejoin:round;stroke-opacity:1"
         d="m 191.18455,172.01696 -3.29738,-0.40235 c 0,0 -1.49425,-0.19559 -1.13279,1.29309 0.47478,1.95548 1.11422,7.2832 2.49156,8.80651 1.37732,1.52331 0.12685,2.20516 0.12685,2.20516 0,0 -1.71996,1.29141 -2.40668,-0.10987 -0.6867,-1.40168 -3.216,-9.3157 -3.49888,-10.9846 -0.2829,-1.66889 -1.18448,-3.91203 -1.1437,-4.86277 0.0412,-0.95073 1.18985,-1.92061 2.50325,-1.85409 1.31337,0.0668 7.79384,1.31838 10.52486,2.34463 2.18516,0.82112 3.45741,1.51665 3.45741,1.51665 0,0 1.51929,0.77217 3.39511,3.6721 2.5126,3.88436 0.79225,6.76791 0.79225,6.76791 0,0 -0.66338,1.23456 -3.1513,1.11917 -2.48788,-0.11581 -2.97926,-0.16621 -2.97926,-0.16621 0,0 -1.43375,0.0282 -2.16719,-1.4923 l -0.90221,-1.61322 c -0.47969,-0.85768 -1.17684,-3.60325 -1.17684,-3.60325 0,0 -0.34556,-2.38851 -1.43506,-2.63612 z"
         id="path17029-2"
         sodipodi:nodetypes="ccsscssscscsccccscc" />
      <path
         style="fill:#f7f7f7;fill-opacity:1;stroke:#000000;stroke-width:0.264583px;stroke-linecap:round;stroke-linejoin:round;stroke-opacity:1"
         d="m -20.114312,56.594973 c 0,0 0.94674,1.542689 1.368187,2.713721 l 0.799804,2.222334 c 0.343276,0.953825 1.26251,2.96969 1.435311,4.493703 0.165098,1.456075 1.415143,2.869084 1.415143,2.869084 0,0 0.678089,0.37328 1.534393,-0.06424 1.393881,-0.712192 2.393131,-2.15245 1.661888,-4.147455 -0.731244,-1.995005 -1.032314,-3.12825 -1.369396,-4.107322 0,0 -1.515964,-2.832649 -1.685411,-3.807539 0.156908,-1.771479 -0.460298,-5.318464 1.294786,-6.701612 1.755075,-1.383145 2.999739,-3.702628 2.999739,-3.702628 0,0 -0.860406,-2.599797 -2.68494,-1.728335 0,0 -3.014997,3.093174 -3.116443,4.578874 -0.101442,1.4857 -0.441438,1.66296 -0.581291,1.935633 -0.139856,0.272672 -0.385523,1.089001 -1.195645,-1.039109 -0.810122,-2.12811 -1.894209,-1.76774 -2.407201,-1.268776 -0.512998,0.498972 -2.767301,4.69071 -3.144724,6.056526 -0.377424,1.365814 0.377576,3.310446 1.310213,2.48565 0.932635,-0.824799 1.445333,-1.973309 2.365587,-0.788508 z"
         id="path23770-7"
         sodipodi:nodetypes="cssscssscsccssssssc" />
      <path
         style="fill:#f7f7f7;fill-opacity:1;stroke:#000000;stroke-width:0.264583px;stroke-linecap:round;stroke-linejoin:round;stroke-opacity:1"
         d="m -78.073019,153.59438 c 0,0 1.770794,0.37484 2.910433,0.87498 l 2.162755,0.94919 c 0.92826,0.40738 3.023413,1.1278 4.248027,2.05129 1.170016,0.8823 3.055465,0.94783 3.055465,0.94783 0,0 0.737487,-0.23506 1.00941,-1.1574 0.442586,-1.50141 0.08535,-3.21759 -1.865291,-4.06005 -1.950642,-0.84245 -2.980025,-1.40395 -3.922334,-1.8332 0,0 -3.098419,-0.84961 -3.922326,-1.39761 -1.17724,-1.33299 -4.175375,-3.32628 -3.970994,-5.55151 0.204383,-2.22522 -0.621835,-4.72454 -0.621835,-4.72454 0,0 -2.478314,-1.16497 -3.101728,0.75849 0,0 0.169166,4.31617 1.177238,5.41225 1.008076,1.09607 0.902692,1.46473 1.004275,1.75386 0.101573,0.28912 0.524756,1.02917 -1.576743,0.15233 -2.101499,-0.87684 -2.58613,0.15768 -2.577176,0.87325 0.009,0.71559 1.498663,5.23592 2.229832,6.44971 0.731159,1.21378 2.661607,2.00435 2.705066,0.76009 0.04344,-1.24428 -0.436959,-2.40667 1.055955,-2.25893 z"
         id="path23770-7-9"
         sodipodi:nodetypes="cssscssscsccssssssc" />
      <path
         style="fill:#f7f7f7;fill-opacity:1;stroke:#000000;stroke-width:0.264583px;stroke-linecap:round;stroke-linejoin:round;stroke-opacity:1"
         d="M 1.8089163,58.768285 C 0.74747425,57.946374 1.7324202,54.771492 1.7324202,54.771492 L 4.6584476,44.393016 c 0,0 0.2851177,-0.76262 0.9297192,0.02019 0.6446419,0.78278 1.4998257,1.975994 1.4998257,1.975994 0,0 0.3143683,0.976234 0.3274297,1.535487 0.018084,0.774326 0.1437793,3.531936 0.1437793,3.531936 0,0 -0.2195181,2.406104 -0.2952538,2.891969 -0.1654954,1.061696 1.8836766,2.184031 1.8836766,2.184031 0,0 0.9527237,0.594457 2.2690187,-1.354971 1.316304,-1.949432 1.045458,-6.319599 1.045458,-6.319599 0,0 0.295296,-3.542028 1.346181,-7.892688 0,0 -0.14352,-1.210749 1.224855,0.26063 1.368333,1.471419 5.878667,8.261415 5.878667,8.261415 0,0 0.553166,1.072036 2.196215,0.832205 1.64304,-0.239825 2.081891,-0.154851 2.765777,-2.149149 0.683892,-1.994304 1.572606,-4.308076 1.737868,-4.638768 0.165262,-0.330693 0.805148,-2.178104 0.339936,-2.683085 -0.465235,-0.50496 -1.394445,-0.766898 -1.758903,0.174783 -0.36445,0.941673 -2.433593,5.303206 -2.433593,5.303206 0,0 -0.257571,1.360286 -1.323927,-0.321758 -1.066362,-1.682036 -2.409617,-6.662265 -2.409617,-6.662265 0,0 -0.45626,-2.477306 -2.517906,-3.859623 -2.061638,-1.382322 -2.608281,-0.949208 -3.154264,0.139839 -0.545992,1.089055 -3.801585,7.573347 -3.801585,7.573347 0,0 -0.52885,1.481277 -0.929834,0.05546 C 9.2209784,41.825781 9.376712,39.859462 7.8492181,38.910775 6.3217248,37.962089 4.9312987,37.758253 3.8153619,40.095964 2.6994327,42.43367 -0.74510041,51.802385 -0.77511861,53.037999 c 0,0 -1.52220269,-3.57743 -1.37100829,-7.805784 0.1512021,-4.228361 1.51062294,-6.80795 -0.092989,-7.058502 -1.6036192,-0.250547 -2.2046215,-0.30435 -3.3214656,1.513173 -1.1168447,1.817522 -1.3041276,3.148304 -1.4695001,3.741786 l -0.7557129,2.122437 c -0.1155963,0.324655 -0.2265488,0.950188 -0.1425618,1.099509 0.083979,0.149329 0.5687561,0.931881 0.9804137,0.54142 0.4116633,-0.390471 1.1834742,0.715377 1.1834742,0.715377 0,0 2.9881453,8.698613 2.8127408,10.452972 -0.175412,1.754364 -0.5770325,3.070343 0.057011,3.617405 0.6340513,0.547055 0.7992171,0.598982 0.7992171,0.598982 0,0 0.6592533,0.396785 0.8738571,0.516602 0.49546187,0.276625 1.19183562,1.384832 2.17356785,-0.459444 C 1.9335599,60.789739 2.8126971,59.54966 1.8089163,58.768285 Z"
         id="path24324-5"
         sodipodi:nodetypes="cccccscscsccccssscscsccscssscssscscscsscscc" />
      <path
         style="fill:#f7f7f7;fill-opacity:1;stroke:#000000;stroke-width:0.264583px;stroke-linecap:round;stroke-linejoin:round;stroke-opacity:1"
         d="m -61.773697,138.18509 c -1.31176,0.28545 -3.112146,-2.50893 -3.112146,-2.50893 l -6.074014,-8.90959 c 0,0 -0.401284,-0.70841 0.612737,-0.69953 1.014017,0.009 2.477836,0.11995 2.477836,0.11995 0,0 0.9501,0.38621 1.387081,0.73546 0.605034,0.48359 2.799121,2.15876 2.799121,2.15876 0,0 1.702932,1.71392 2.026633,2.08408 0.707334,0.80888 2.883848,-0.0405 2.883848,-0.0405 0,0 1.067608,-0.34824 0.419226,-2.60933 -0.648376,-2.2611 -4.171515,-4.86095 -4.171515,-4.86095 0,0 -2.52479,-2.50172 -5.183891,-6.10197 0,0 -1.020075,-0.6678 0.986591,-0.77126 2.006669,-0.10339 10.10775,0.80198 10.10775,0.80198 0,0 1.176923,0.26474 2.048629,-1.1485 0.871707,-1.41323 1.218745,-1.69496 0.129713,-3.50022 -1.089028,-1.80526 -2.291306,-3.97271 -2.43857,-4.3118 -0.147273,-0.33909 -1.151997,-2.01627 -1.837851,-1.98415 -0.685855,0.0322 -1.483525,0.576 -0.995983,1.46024 0.487547,0.88424 2.500845,5.27183 2.500845,5.27183 0,0 0.877014,1.07125 -1.097083,0.80791 -1.974086,-0.26332 -6.653676,-2.43322 -6.653676,-2.43322 0,0 -2.191628,-1.24177 -4.575401,-0.54981 -2.38377,0.69196 -2.403008,1.38913 -1.919147,2.50716 0.48387,1.11804 3.361797,7.77856 3.361797,7.77856 0,0 0.795465,1.35687 -0.554797,0.74824 -1.3503,-0.60865 -2.757175,-1.99117 -4.465487,-1.43 -1.708305,0.56119 -2.757737,1.49582 -1.683081,3.85279 1.074663,2.35696 6.041732,11.01524 6.969384,11.83201 0,0 -3.719489,-1.13159 -6.862829,-3.96378 -3.143336,-2.8322 -4.246946,-5.53115 -5.469127,-4.46315 -1.222186,1.068 -1.649503,1.49402 -0.974084,3.51752 0.675417,2.0235 1.574977,3.02193 1.923563,3.52992 l 1.141092,1.94261 c 0.17454,0.29715 0.582648,0.78403 0.751035,0.81559 0.168393,0.0315 1.079541,0.16277 1.044748,-0.40355 -0.03479,-0.56632 1.308513,-0.44741 1.308513,-0.44741 0,0 8.585913,3.29802 9.817712,4.55946 1.231803,1.26144 1.982322,2.41462 2.808881,2.28015 0.826559,-0.13449 0.97246,-0.22771 0.97246,-0.22771 0,0 0.526478,-0.1957 0.943441,-0.40805 0.50565,-0.25752 1.826927,-0.0238 1.044205,-1.96089 -0.782718,-1.93701 -1.154469,-3.33716 -2.398126,-3.06986 z"
         id="path24324-5-3"
         sodipodi:nodetypes="cccccscscsccccssscscsccscssscssscscscsscsccc" />
      <path
         style="fill:#f7f7f7;fill-opacity:1;stroke:#000000;stroke-width:0.264583px;stroke-linecap:round;stroke-linejoin:round;stroke-opacity:1"
         d="m 62.488471,45.348916 c -0.564208,-1.218141 1.771152,-3.583745 1.771152,-3.583745 l 7.37339,-7.868133 c 0,0 0.60405,-0.545898 0.816159,0.445723 0.212158,0.991614 0.422388,2.444508 0.422388,2.444508 0,0 -0.17009,1.0114 -0.415826,1.513941 -0.340244,0.695803 -1.497521,3.201981 -1.497521,3.201981 0,0 -1.302037,2.035245 -1.592843,2.431771 -0.635461,0.866473 0.667464,2.805836 0.667464,2.805836 0,0 0.572343,0.966171 2.638017,-0.158948 2.065683,-1.125119 3.836089,-5.129788 3.836089,-5.129788 0,0 1.891997,-3.008906 4.826923,-6.388079 0,0 0.429687,-1.140999 0.967559,0.795001 0.537817,1.936017 1.417979,10.039873 1.417979,10.039873 0,0 -0.0022,1.206337 1.566976,1.749432 1.569122,0.543095 1.919655,0.820471 3.444492,-0.635481 1.524846,-1.455955 3.378541,-3.101302 3.677432,-3.318863 0.298892,-0.217562 1.717076,-1.563346 1.536399,-2.225754 -0.180707,-0.662399 -0.885177,-1.322524 -1.642063,-0.654156 -0.756875,0.668366 -4.600862,3.588654 -4.600862,3.588654 0,0 -0.854602,1.089209 -1.027393,-0.89486 -0.1728,-1.984065 0.926182,-7.023832 0.926182,-7.023832 0,0 0.734811,-2.409413 -0.459561,-4.58534 -1.194364,-2.175928 -1.878991,-2.04292 -2.864852,-1.327239 -0.985873,0.715684 -6.860007,4.97473 -6.860007,4.97473 0,0 -1.151129,1.071805 -0.851071,-0.378611 0.300053,-1.450424 1.343097,-3.124557 0.423441,-4.669704 -0.919656,-1.545145 -2.06035,-2.365907 -4.1268,-0.803859 -2.06644,1.562047 -9.435555,8.295083 -10.030759,9.378307 0,0 0.294624,-3.876635 2.374484,-7.5612 2.07987,-3.684568 4.473794,-5.34933 3.165318,-6.309664 -1.308484,-0.960332 -1.817325,-1.284645 -3.645223,-0.184862 -1.827897,1.099781 -2.606518,2.195137 -3.026428,2.645965 l -1.64757,1.536669 c -0.252017,0.235054 -0.638357,0.739379 -0.632497,0.910599 0.0058,0.171224 0.07617,1.089075 0.62133,0.931823 0.545165,-0.157257 0.721574,1.179707 0.721574,1.179707 0,0 -1.349537,9.098001 -2.312515,10.574895 -0.962988,1.476895 -1.925096,2.460483 -1.613886,3.237938 0.311221,0.777452 0.433969,0.899554 0.433969,0.899554 0,0 0.406968,0.647521 0.520265,0.868619 0.258782,0.50501 0.504361,1.741271 2.224611,0.555567 1.720123,-1.185677 3.005743,-1.853359 2.474078,-3.008978 z"
         id="path24324-5-1"
         sodipodi:nodetypes="cccccscscsccccssscscsccscssscssscscscsscsccc" />
      <path
         style="fill:#f7f7f7;fill-opacity:1;stroke:#000000;stroke-width:0.264583px;stroke-linecap:round;stroke-linejoin:round;stroke-opacity:1"
         d="m 107.42797,34.43698 c 0,0 -4.41651,-0.09265 -7.35398,2.494462 -2.937488,2.587115 -4.935924,8.383916 -5.582798,11.551783 -0.646885,3.167866 1.423832,4.302474 2.457596,4.120393 1.033753,-0.182079 8.222432,-2.339672 13.690172,-7.754584 5.46776,-5.414902 4.97773,-6.691094 2.0411,-8.633718 -2.46367,-1.629759 -3.44818,-1.579283 -3.44818,-1.579283 z"
         id="path24536-3-5"
         sodipodi:nodetypes="sssssscs" />
      <path
         style="fill:#f7f7f7;fill-opacity:1;stroke:#000000;stroke-width:0.264583px;stroke-linecap:round;stroke-linejoin:round;stroke-opacity:1"
         d="m -36.172846,61.197979 c 0,0 -2.27336,3.787609 -1.486246,7.621971 0.787107,3.834379 4.82655,8.447355 7.255124,10.5818 2.428567,2.134454 4.441605,0.900403 4.796852,-0.08733 0.355244,-0.987725 2.051821,-8.298945 0.06648,-15.733721 -1.985318,-7.434788 -3.336392,-7.643103 -6.480755,-6.058629 -2.637952,1.329284 -3.082979,2.20892 -3.082979,2.20892 z"
         id="path24536-3-5-2"
         sodipodi:nodetypes="sssssscs" />
      <path
         style="fill:#f7f7f7;fill-opacity:1;stroke:#000000;stroke-width:0.264583px;stroke-linecap:round;stroke-linejoin:round;stroke-opacity:1"
         d="m -61.775055,90.912928 c 0,0 -1.177731,4.257593 0.606061,7.741839 1.783789,3.484263 6.909678,6.849063 9.820581,8.256363 2.910897,1.40729 4.52063,-0.32012 4.598821,-1.36684 0.07818,-1.04675 -0.242111,-8.545407 -4.143275,-15.178531 -3.901147,-6.633144 -5.258725,-6.472585 -7.864878,-4.104981 -2.186424,1.986287 -2.380022,2.952893 -2.380022,2.952893 z"
         id="path24536-3-5-2-0"
         sodipodi:nodetypes="sssssscs" />
      <path
         style="fill:#f7f7f7;fill-opacity:1;stroke:#000000;stroke-width:0.264583px;stroke-linecap:round;stroke-linejoin:round;stroke-opacity:1"
         d="m 42.300948,36.304598 c 0,0 -5.610257,11.820556 -8.506696,12.788667 -2.896438,0.96811 -2.85406,-6.839209 -1.923161,-10.27095 0.930897,-3.431739 2.038779,-10.484573 5.919277,-12.678437 3.880498,-2.193864 9.02888,-2.014723 9.02888,-2.014723 0,0 1.225807,-0.120291 1.283332,1.414367 0.05753,1.534658 -0.390366,1.281661 -1.061236,1.386349 -0.670866,0.10469 -0.630822,0.42165 -0.542747,1.046091 0.08808,0.62444 1.73129,10.177454 3.227157,11.90227 1.495867,1.724814 4.655021,-3.913139 4.655021,-3.913139 0,0 0.762294,-1.607596 1.501992,-0.471462 0.739701,1.136132 1.026329,2.087738 -0.619644,4.263578 -1.645973,2.175841 -4.870251,7.064148 -6.457635,6.732828 -1.587383,-0.331319 -4.540411,-3.862604 -5.623599,-7.571483 -1.083191,-3.708876 -0.880941,-2.613956 -0.880941,-2.613956 z"
         id="path25068" />
      <path
         style="fill:#f7f7f7;fill-opacity:1;stroke:#000000;stroke-width:0.264583px;stroke-linecap:round;stroke-linejoin:round;stroke-opacity:1"
         d="m 191.41912,198.55535 c 0,0 -9.82563,-8.64044 -9.96119,-11.69139 -0.13555,-3.05094 7.36001,-0.86635 10.40424,0.9711 3.04419,1.83744 9.52171,4.8394 10.56567,9.17315 1.04399,4.33377 -0.54198,9.23505 -0.54198,9.23505 0,0 -0.22093,1.21171 -1.71239,0.84563 -1.49146,-0.36612 -1.1252,-0.72731 -1.04166,-1.40113 0.0835,-0.67382 -0.23222,-0.72235 -0.85684,-0.80913 -0.62463,-0.0868 -10.26164,-1.12992 -12.33091,-0.16518 -2.06927,0.96475 2.48449,5.5506 2.48449,5.5506 0,0 1.33647,1.17443 0.0409,1.57372 -1.29558,0.3993 -2.28932,0.4136 -3.92954,-1.76658 -1.64023,-2.18017 -5.45527,-6.62281 -4.70081,-8.05818 0.75448,-1.4354 4.96091,-3.30523 8.82465,-3.32836 3.86374,-0.0232 2.75537,-0.1293 2.75537,-0.1293 z"
         id="path25068-1" />
      <path
         style="fill:#f7f7f7;fill-opacity:1;stroke:#000000;stroke-width:0.264583px;stroke-linecap:round;stroke-linejoin:round;stroke-opacity:1"
         d="m -50.081804,79.230833 c -2.087689,1.229053 -4.111971,0.952899 -4.524822,-0.02673 -0.41285,-0.979622 -0.04244,-3.125904 -0.04244,-3.125904 0,0 0.05863,-1.262657 1.169803,-0.917871 1.111175,0.344784 3.005317,-0.231894 2.238271,-1.885736 -0.767045,-1.653841 -3.474008,-3.58359 -3.791788,-8.182218 -0.317783,-4.598625 0.69066,-7.139879 2.223608,-8.603131 1.532948,-1.463254 3.315565,-0.393604 4.163828,0.196813 0.848259,0.590418 1.682559,3.576619 -1.084432,4.561023 -2.703826,0.520773 -2.522379,1.448058 -2.239563,2.335619 0.282816,0.88756 2.884456,7.752632 3.437257,8.846014 0.552802,1.093382 0.743537,0.571222 1.961142,-0.07949 1.217605,-0.650714 3.655092,-3.316959 4.120728,-4.190802 0.465636,-0.873844 1.890395,-0.7208 1.802976,0.636164 -0.08742,1.356964 -0.950914,3.875354 -3.204154,6.078218 -2.25324,2.202863 -1.549278,2.900784 -0.7716,3.832663 0.777678,0.93188 9.99531,12.471425 9.99531,12.471425 0,0 5.829225,8.88692 6.383389,12.74781 0.554163,3.86088 0.950751,6.63333 0.849351,8.22117 -0.1014,1.58785 -0.153973,3.15567 -0.153973,3.15567 0,0 -0.547983,1.48804 -1.846452,0.46056 -1.29847,-1.02748 -0.474093,-2.63237 -0.474093,-2.63237 0,0 0.34674,-1.24345 0.252822,-2.57542 -0.120549,-1.70965 -1.184873,-6.96994 -3.509019,-10.898693 -2.324146,-3.92876 -13.544266,-18.521442 -14.341656,-20.111375 -0.79739,-1.589934 -1.41327,-0.997129 -2.614493,-0.313407 z"
         id="path25265"
         sodipodi:nodetypes="sscssssscssssssscsscscsssss" />
      <path
         style="fill:#f7f7f7;fill-opacity:1;stroke:#000000;stroke-width:0.264583px;stroke-linecap:round;stroke-linejoin:round;stroke-opacity:1"
         d="m 120.67134,40.768682 c 1.4667,-0.242898 8.14713,-0.219427 8.31024,1.145257 0.1631,1.364681 -0.24635,2.75113 -2.33462,2.544138 -2.08827,-0.206994 -5.03351,-0.933222 -4.59353,1.834118 0.43997,2.767343 3.41546,10.584744 -3.50644,11.667532 -6.9219,1.082789 -11.65257,-0.02964 -9.22603,-1.746265 2.40017,-1.04987 5.2147,-1.038668 5.2147,-1.038668 0,0 3.33372,0.177329 3.60651,-3.544469 -0.37626,-1.809017 -0.99319,-2.397544 -0.99319,-2.397544 0,0 -0.4281,-0.48879 -0.46994,-2.026781 0.006,-2.133752 0.42886,-4.561742 1.67429,-5.345217 1.24542,-0.783475 2.31801,-1.092101 2.31801,-1.092101 z"
         id="path25542"
         sodipodi:nodetypes="csssscccccsc" />
      <path
         style="fill:#f7f7f7;fill-opacity:1;stroke:#000000;stroke-width:0.264583px;stroke-linecap:round;stroke-linejoin:round;stroke-opacity:1"
         d="m 185.52768,103.01219 c 1.36016,0.60016 6.93647,4.27892 6.32545,5.51003 -0.61104,1.2311 -1.71301,2.16679 -3.34678,0.84979 -1.63378,-1.31701 -3.70012,-3.53783 -4.84779,-0.98155 -1.14768,2.55629 -2.94013,10.7265 -9.32442,7.84102 -6.38429,-2.88547 -9.73291,-6.40732 -6.76246,-6.51446 2.58315,0.4363 4.9318,1.98729 4.9318,1.98729 0,0 2.69202,1.97437 4.95882,-0.99005 0.67607,-1.71961 0.48227,-2.54991 0.48227,-2.54991 0,0 -0.0905,-0.64343 0.71697,-1.9531 1.17377,-1.78193 2.85746,-3.58169 4.32859,-3.55501 1.47111,0.0267 2.53755,0.35595 2.53755,0.35595 z"
         id="path25542-6"
         sodipodi:nodetypes="csssscccccsc" />
      <path
         style="fill:#f7f7f7;fill-opacity:1;stroke:#000000;stroke-width:0.264583px;stroke-linecap:round;stroke-linejoin:round;stroke-opacity:1"
         d="m 194.65714,220.03648 c 0.4002,1.43181 1.0999,8.07553 -0.23913,8.38538 -1.33901,0.30985 -2.76163,0.0529 -2.78186,-2.04553 -0.0203,-2.09842 0.38295,-5.10495 -2.32051,-4.36806 -2.70346,0.73691 -10.1529,4.54101 -11.9785,-2.22304 -1.8256,-6.76404 -1.23176,-11.58733 0.73745,-9.36083 1.30347,2.27244 1.59697,5.07165 1.59697,5.07165 0,0 0.18454,3.33333 3.91398,3.2017 1.75766,-0.56985 2.27595,-1.24685 2.27595,-1.24685 0,0 0.43956,-0.47853 1.96401,-0.68654 2.12189,-0.22497 4.58138,-0.0674 5.49506,1.08594 0.91363,1.15332 1.33657,2.18618 1.33657,2.18618 z"
         id="path25542-6-6"
         sodipodi:nodetypes="csssscccccsc" />
      <path
         style="fill:#f7f7f7;fill-opacity:1;stroke:#000000;stroke-width:0.264583px;stroke-linecap:butt;stroke-linejoin:miter;stroke-opacity:1"
         d="m 156.87939,59.032049 c 2.85586,0.165524 4.04308,1.517314 2.14509,3.00913 -1.89798,1.491816 -1.49574,2.46752 0.0101,2.935158 1.50585,0.467641 4.8981,0.06175 6.19265,-1.442426 1.29455,-1.504178 2.65291,-4.410149 1.2897,-5.835896 -1.36321,-1.425747 -21.10215,-2.404568 -21.10215,-2.404568 0,0 -6.37672,-0.393075 -3.3303,2.938672 3.04641,3.331747 8.8511,7.534259 9.76038,9.979122 0.90927,2.444867 1.59285,5.164852 -2.77532,6.388114 -4.36817,1.223264 -8.01982,-1.226133 -11.0473,-3.227473 -3.02748,-2.001342 -3.40978,-2.840881 -3.40978,-2.840881 0,0 3.43633,-1.16295 1.63127,-2.616798 -1.80507,-1.453846 -4.70035,-1.154623 -4.90142,0.208471 -0.20106,1.363096 -0.77273,4.046765 5.20368,7.53555 5.9764,3.488785 12.25668,4.572285 12.25668,4.572285 0,0 4.29758,0.920687 6.36833,-1.248394 2.07076,-2.16908 2.0447,-5.055552 0.54561,-7.910229 -1.49909,-2.854674 -9.74259,-11.526091 -9.74259,-11.526091 z"
         id="path53079" />
      <path
         style="fill:#f7f7f7;fill-opacity:1;stroke:#000000;stroke-width:0.264583px;stroke-linecap:round;stroke-linejoin:round;stroke-opacity:1"
         d="m 166.1568,81.110827 c -11.33766,4.148389 -13.11045,6.20767 -13.62639,7.248459 -0.51593,1.040789 -0.90937,2.65054 0.93388,3.731157 1.84325,1.080619 16.60356,1.716164 16.60356,1.716164 0,0 0.9404,-0.02344 0.46487,0.785976 -0.47553,0.809414 -5.65639,3.828328 -7.52613,4.186333 -0.84522,0.245374 -1.53292,2.090504 1.3183,3.467564 2.85121,1.37705 5.36604,1.71446 4.96385,-0.24089 -0.4022,-1.95535 8.02314,-6.292072 9.45467,-6.515939 1.43153,-0.223867 1.69218,-1.408327 0.73829,-2.26834 -0.95388,-0.860014 -0.91888,-1.396911 -2.86159,-1.435387 -1.94272,-0.03848 -16.64618,-1.426825 -16.64618,-1.426825 0,0 -1.40725,-0.280174 -0.48602,-0.936613 0.92122,-0.656439 10.74928,-5.867967 11.92806,-6.044688 1.58274,-0.237282 1.41513,-0.855432 1.41513,-0.855432 0,0 -0.24804,-1.025231 -1.64717,-1.791125 -1.39914,-0.765895 -6.55432,-4.130573 -6.55432,-4.130573 0,0 -0.97725,-0.539669 -1.62432,-0.215513 -0.64706,0.324157 -0.97138,1.108198 -0.47188,1.729204 0.49949,0.621007 3.62339,2.996468 3.62339,2.996468 z"
         id="path53668"
         sodipodi:nodetypes="csscscssssscsscscssc" />
      <path
         style="fill:#f7f7f7;fill-opacity:1;stroke:#000000;stroke-width:0.264583px;stroke-linecap:butt;stroke-linejoin:miter;stroke-opacity:1"
         d="m 203.28371,137.55275 c -1.90199,-1.92898 -6.2346,-1.17963 -7.86622,-1.02675 -1.63161,0.15288 -8.17097,1.09691 -9.2577,1.54637 -1.08674,0.44947 -1.14203,0.42404 -1.12014,0.98169 0.0219,0.55764 0.602,2.06914 0.0583,2.54461 -0.54372,0.47546 -1.22081,0.0375 -2.21829,-0.86737 -0.99749,-0.90481 -3.97208,-4.22206 -5.16477,-7.85326 -1.19269,-3.6312 0.75472,-2.91174 1.54044,-2.39938 0.78572,0.51236 2.81539,2.17721 3.16497,3.23965 0.34959,1.06244 0.7251,0.9967 0.7251,0.9967 0,0 13.88823,-2.67122 16.08289,-2.65568 2.19466,0.0155 2.45663,-0.60542 2.03979,-1.01213 -0.41683,-0.40672 -2.074,-0.73205 -1.9894,-1.70384 0.0846,-0.97178 0.95652,-1.64388 0.95652,-1.64388 0,0 0.838,-0.9645 2.07875,-0.22173 1.24074,0.74278 3.51412,3.92415 4.51018,7.09658 0.99606,3.17243 2.22767,4.35065 1.99252,5.59295 -0.23515,1.2423 -1.3754,1.15506 -2.19772,0.43683 -0.82231,-0.71822 -2.54561,-2.6829 -3.3352,-3.05136 z"
         id="path56986" />
      <path
         style="fill:#f7f7f7;fill-opacity:1;stroke:#000000;stroke-width:0.264583px;stroke-linecap:butt;stroke-linejoin:miter;stroke-opacity:1"
         d="m 208.89877,157.23672 c -0.98456,-1.25463 -0.53613,-1.68265 -0.0358,-1.94297 0.50035,-0.26032 1.56422,-0.68901 2.84569,0.42073 1.28146,1.10974 2.57421,2.39966 2.87047,4.8296 0.29625,2.42994 -0.0199,2.37012 -0.81296,2.34578 -0.79302,-0.0243 -22.06285,-3.83082 -26.69664,-3.02831 -4.63379,0.80252 -10.40474,2.59997 -11.71305,4.70678 -1.30831,2.10681 -0.41708,2.50768 -0.41708,2.50768 0,0 0.72049,0.17992 0.70185,0.79895 -0.0187,0.61904 -0.1036,1.42324 -0.74987,1.36239 -0.64626,-0.0609 -3.46625,0.15096 -3.81613,-2.01529 -0.34988,-2.16626 0.96179,-3.4315 0.96179,-3.4315 0,0 4.63499,-4.51675 7.02825,-5.50851 2.39326,-0.99175 8.30299,-2.63315 8.30299,-2.63315 0,0 -1.65009,-2.13704 -4.22613,-3.4169 -2.57604,-1.27987 -3.72533,-3.05154 -3.25833,-4.04508 0.46699,-0.99355 2.79612,-1.51196 5.72707,-1.91837 2.93094,-0.4064 8.18778,-0.17233 11.19641,1.5446 3.00863,1.71693 6.2072,3.787 5.6169,6.43393 -0.5903,2.64691 -1.59058,3.5891 -1.59058,3.5891 l 7.83641,0.3785 c 0,0 1.13235,-0.061 0.22871,-0.97796 z"
         id="path57251" />
    </g>
    <g
       id="g60148"
       style="fill:#1a171b;fill-opacity:1">
      <path
         style="fill:#1a171b;fill-opacity:1;stroke:#000000;stroke-width:0.264583px;stroke-linecap:round;stroke-linejoin:round;stroke-opacity:1"
         d="m -78.050634,168.71996 c 0,0 1.018612,0.34136 1.024077,1.18084 0.006,0.92109 -0.04347,1.93554 -0.04347,1.93554 0,0 0.195299,1.05793 -1.153292,0.28553 -1.348595,-0.77241 -2.595473,-1.37696 -2.595473,-1.37696 0,0 -0.759243,-0.50206 -0.700897,-1.55474 0.05835,-1.05267 0.458629,-1.23438 0.458629,-1.23438 0,0 0.520674,-0.49098 1.453136,-0.0505 0.937937,0.44306 1.557288,0.81468 1.557288,0.81468 z"
         id="path11864"
         sodipodi:nodetypes="cscscscscc" />
      <path
         style="fill:#1a171b;fill-opacity:1;stroke:#000000;stroke-width:0.264583px;stroke-linecap:round;stroke-linejoin:round;stroke-opacity:1"
         d="m 198.48832,173.7176 c 0,0 1.01861,0.34136 1.02407,1.18084 0.006,0.92109 -0.0435,1.93554 -0.0435,1.93554 0,0 0.1953,1.05793 -1.15329,0.28553 -1.34859,-0.77241 -2.36448,-1.47287 -2.36448,-1.47287 0,0 -0.44476,-0.61742 -0.57402,-1.45883 -0.16008,-1.04206 0.10076,-1.23438 0.10076,-1.23438 0,0 0.52067,-0.49098 1.45314,-0.0505 0.93793,0.44306 1.55728,0.81468 1.55728,0.81468 z"
         id="path11864-6"
         sodipodi:nodetypes="cscscscscc" />
      <path
         style="fill:#1a171b;fill-opacity:1;stroke:#000000;stroke-width:0.264583px;stroke-linecap:round;stroke-linejoin:round;stroke-opacity:1"
         d="m 107.70399,38.619356 c -2.53363,-0.746616 -5.53426,1.659865 -6.21933,3.24267 -0.68506,1.582804 -2.015732,6.05121 -1.704831,6.697306 0.190765,0.568653 1.342171,0.01501 3.010811,-1.24519 1.66865,-1.260202 3.82724,-3.621795 4.87083,-5.04104 1.05068,-1.428894 1.36961,-2.340993 1.36961,-2.340993 0,0 0.74883,-0.895458 -1.32709,-1.312753 z"
         id="path24538-6-6"
         sodipodi:nodetypes="cscsscc" />
      <path
         style="fill:#1a171b;fill-opacity:1;stroke:#000000;stroke-width:0.264583px;stroke-linecap:round;stroke-linejoin:round;stroke-opacity:1"
         d="m -32.811303,63.569325 c -1.793887,1.938733 -0.969832,5.695842 0.144255,7.012429 1.11409,1.316579 4.527137,4.492811 5.244097,4.50109 0.594229,0.08154 0.609353,-1.195967 0.221021,-3.250636 -0.388329,-2.054678 -1.546016,-5.03736 -2.35437,-6.602576 -0.813852,-1.575852 -1.489524,-2.266583 -1.489524,-2.266583 0,0 -0.469892,-1.068547 -1.765479,0.606276 z"
         id="path24538-6-6-7"
         sodipodi:nodetypes="cscsscc" />
      <path
         style="fill:#1a171b;fill-opacity:1;stroke:#000000;stroke-width:0.264583px;stroke-linecap:round;stroke-linejoin:round;stroke-opacity:1"
         d="m -58.183611,92.244339 c -1.085772,2.407866 0.888182,5.709144 2.362547,6.60404 1.474365,0.894883 5.71907,2.823581 6.401582,2.603861 0.58937,-0.11133 0.198245,-1.32753 -0.822161,-3.152698 -1.020407,-1.825179 -3.064937,-4.28618 -4.328294,-5.513889 -1.271945,-1.236049 -2.131918,-1.676605 -2.131918,-1.676605 0,0 -0.784752,-0.86415 -1.481756,1.135291 z"
         id="path24538-6-6-7-9"
         sodipodi:nodetypes="cscsscc" />
      <path
         style="fill:#1a171b;fill-opacity:1;stroke:#000000;stroke-width:0.264583px;stroke-linecap:round;stroke-linejoin:round;stroke-opacity:1"
         d="m 38.818068,28.900244 c 0,0 -3.841279,10.068078 -3.221236,13.662797 0.260593,0.331396 4.760339,-6.413442 6.126987,-12.398809 0.413002,-1.122319 -0.357333,-1.191857 -1.352704,-1.330686 -0.99537,-0.138829 -1.553047,0.0667 -1.553047,0.0667 z"
         id="path25070" />
      <path
         style="fill:#1a171b;fill-opacity:1;stroke:#000000;stroke-width:0.264583px;stroke-linecap:round;stroke-linejoin:round;stroke-opacity:1"
         d="m 199.1196,197.64055 c 0,0 -8.49258,-6.63308 -12.11063,-7.09796 -0.3934,0.15157 4.72928,6.43638 10.04777,9.5033 0.95116,0.72489 1.24424,0.009 1.66973,-0.9014 0.4255,-0.91048 0.39312,-1.50394 0.39312,-1.50394 z"
         id="path25070-8" />
      <path
         style="fill:#1a171b;fill-opacity:1;stroke:#000000;stroke-width:0.264583px;stroke-linecap:butt;stroke-linejoin:miter;stroke-opacity:1"
         d="m 187.20319,151.53521 c 2.06918,1.79567 4.75774,4.51165 4.75774,4.51165 0,0 0.35933,0.77115 2.36409,0.59608 2.00476,-0.17507 3.47898,-0.20161 3.47898,-1.04281 0,-0.84121 1.41935,-2.4665 -0.79167,-3.43782 -2.21102,-0.97133 -7.42708,-1.81064 -9.08764,-1.67103 -1.66056,0.1396 -0.7215,1.04393 -0.7215,1.04393 z"
         id="path57253" />
    </g>
  </g>
</svg>
